<svg aria-roledescription="flowchart-v2" role="graphics-document document" viewBox="0 0 3045.15625 967" style="max-width: 3045.16px; background-color: white;" class="flowchart" xmlns:xlink="http://www.w3.org/1999/xlink" xmlns="http://www.w3.org/2000/svg" width="100%" id="my-svg"><style>#my-svg{font-family:"trebuchet ms",verdana,arial,sans-serif;font-size:16px;fill:#333;}@keyframes edge-animation-frame{from{stroke-dashoffset:0;}}@keyframes dash{to{stroke-dashoffset:0;}}#my-svg .edge-animation-slow{stroke-dasharray:9,5!important;stroke-dashoffset:900;animation:dash 50s linear infinite;stroke-linecap:round;}#my-svg .edge-animation-fast{stroke-dasharray:9,5!important;stroke-dashoffset:900;animation:dash 20s linear infinite;stroke-linecap:round;}#my-svg .error-icon{fill:#552222;}#my-svg .error-text{fill:#552222;stroke:#552222;}#my-svg .edge-thickness-normal{stroke-width:1px;}#my-svg .edge-thickness-thick{stroke-width:3.5px;}#my-svg .edge-pattern-solid{stroke-dasharray:0;}#my-svg .edge-thickness-invisible{stroke-width:0;fill:none;}#my-svg .edge-pattern-dashed{stroke-dasharray:3;}#my-svg .edge-pattern-dotted{stroke-dasharray:2;}#my-svg .marker{fill:#333333;stroke:#333333;}#my-svg .marker.cross{stroke:#333333;}#my-svg svg{font-family:"trebuchet ms",verdana,arial,sans-serif;font-size:16px;}#my-svg p{margin:0;}#my-svg .label{font-family:"trebuchet ms",verdana,arial,sans-serif;color:#333;}#my-svg .cluster-label text{fill:#333;}#my-svg .cluster-label span{color:#333;}#my-svg .cluster-label span p{background-color:transparent;}#my-svg .label text,#my-svg span{fill:#333;color:#333;}#my-svg .node rect,#my-svg .node circle,#my-svg .node ellipse,#my-svg .node polygon,#my-svg .node path{fill:#ECECFF;stroke:#9370DB;stroke-width:1px;}#my-svg .rough-node .label text,#my-svg .node .label text,#my-svg .image-shape .label,#my-svg .icon-shape .label{text-anchor:middle;}#my-svg .node .katex path{fill:#000;stroke:#000;stroke-width:1px;}#my-svg .rough-node .label,#my-svg .node .label,#my-svg .image-shape .label,#my-svg .icon-shape .label{text-align:center;}#my-svg .node.clickable{cursor:pointer;}#my-svg .root .anchor path{fill:#333333!important;stroke-width:0;stroke:#333333;}#my-svg .arrowheadPath{fill:#333333;}#my-svg .edgePath .path{stroke:#333333;stroke-width:2.0px;}#my-svg .flowchart-link{stroke:#333333;fill:none;}#my-svg .edgeLabel{background-color:rgba(232,232,232, 0.8);text-align:center;}#my-svg .edgeLabel p{background-color:rgba(232,232,232, 0.8);}#my-svg .edgeLabel rect{opacity:0.5;background-color:rgba(232,232,232, 0.8);fill:rgba(232,232,232, 0.8);}#my-svg .labelBkg{background-color:rgba(232, 232, 232, 0.5);}#my-svg .cluster rect{fill:#ffffde;stroke:#aaaa33;stroke-width:1px;}#my-svg .cluster text{fill:#333;}#my-svg .cluster span{color:#333;}#my-svg div.mermaidTooltip{position:absolute;text-align:center;max-width:200px;padding:2px;font-family:"trebuchet ms",verdana,arial,sans-serif;font-size:12px;background:hsl(80, 100%, 96.2745098039%);border:1px solid #aaaa33;border-radius:2px;pointer-events:none;z-index:100;}#my-svg .flowchartTitleText{text-anchor:middle;font-size:18px;fill:#333;}#my-svg rect.text{fill:none;stroke-width:0;}#my-svg .icon-shape,#my-svg .image-shape{background-color:rgba(232,232,232, 0.8);text-align:center;}#my-svg .icon-shape p,#my-svg .image-shape p{background-color:rgba(232,232,232, 0.8);padding:2px;}#my-svg .icon-shape rect,#my-svg .image-shape rect{opacity:0.5;background-color:rgba(232,232,232, 0.8);fill:rgba(232,232,232, 0.8);}#my-svg .label-icon{display:inline-block;height:1em;overflow:visible;vertical-align:-0.125em;}#my-svg .node .label-icon path{fill:currentColor;stroke:revert;stroke-width:revert;}#my-svg :root{--mermaid-font-family:"trebuchet ms",verdana,arial,sans-serif;}</style><g><marker orient="auto" markerHeight="8" markerWidth="8" markerUnits="userSpaceOnUse" refY="5" refX="5" viewBox="0 0 10 10" class="marker flowchart-v2" id="my-svg_flowchart-v2-pointEnd"><path style="stroke-width: 1; stroke-dasharray: 1, 0;" class="arrowMarkerPath" d="M 0 0 L 10 5 L 0 10 z"/></marker><marker orient="auto" markerHeight="8" markerWidth="8" markerUnits="userSpaceOnUse" refY="5" refX="4.5" viewBox="0 0 10 10" class="marker flowchart-v2" id="my-svg_flowchart-v2-pointStart"><path style="stroke-width: 1; stroke-dasharray: 1, 0;" class="arrowMarkerPath" d="M 0 5 L 10 10 L 10 0 z"/></marker><marker orient="auto" markerHeight="11" markerWidth="11" markerUnits="userSpaceOnUse" refY="5" refX="11" viewBox="0 0 10 10" class="marker flowchart-v2" id="my-svg_flowchart-v2-circleEnd"><circle style="stroke-width: 1; stroke-dasharray: 1, 0;" class="arrowMarkerPath" r="5" cy="5" cx="5"/></marker><marker orient="auto" markerHeight="11" markerWidth="11" markerUnits="userSpaceOnUse" refY="5" refX="-1" viewBox="0 0 10 10" class="marker flowchart-v2" id="my-svg_flowchart-v2-circleStart"><circle style="stroke-width: 1; stroke-dasharray: 1, 0;" class="arrowMarkerPath" r="5" cy="5" cx="5"/></marker><marker orient="auto" markerHeight="11" markerWidth="11" markerUnits="userSpaceOnUse" refY="5.2" refX="12" viewBox="0 0 11 11" class="marker cross flowchart-v2" id="my-svg_flowchart-v2-crossEnd"><path style="stroke-width: 2; stroke-dasharray: 1, 0;" class="arrowMarkerPath" d="M 1,1 l 9,9 M 10,1 l -9,9"/></marker><marker orient="auto" markerHeight="11" markerWidth="11" markerUnits="userSpaceOnUse" refY="5.2" refX="-1" viewBox="0 0 11 11" class="marker cross flowchart-v2" id="my-svg_flowchart-v2-crossStart"><path style="stroke-width: 2; stroke-dasharray: 1, 0;" class="arrowMarkerPath" d="M 1,1 l 9,9 M 10,1 l -9,9"/></marker><g class="root"><g class="clusters"/><g class="edgePaths"><path marker-end="url(#my-svg_flowchart-v2-pointEnd)" style="" class="edge-thickness-normal edge-pattern-solid edge-thickness-normal edge-pattern-solid flowchart-link" id="L_Lithosphere_Plates_0" d="M1454.544,727L1480.093,676.333C1505.642,625.667,1556.739,524.333,1592.911,473.667C1629.083,423,1650.331,423,1660.954,423L1671.578,423"/><path marker-end="url(#my-svg_flowchart-v2-pointEnd)" style="" class="edge-thickness-normal edge-pattern-solid edge-thickness-normal edge-pattern-solid flowchart-link" id="L_Plates_Asthenosphere_0" d="M1865.059,396L1885.937,387.167C1906.815,378.333,1948.572,360.667,1981.964,351.833C2015.357,343,2040.385,343,2052.9,343L2065.414,343"/><path marker-end="url(#my-svg_flowchart-v2-pointEnd)" style="" class="edge-thickness-normal edge-pattern-solid edge-thickness-normal edge-pattern-solid flowchart-link" id="L_Plates_Rate_0" d="M1812.293,450L1841.965,522.5C1871.638,595,1930.983,740,1974.012,812.5C2017.042,885,2043.755,885,2057.112,885L2070.469,885"/><path marker-end="url(#my-svg_flowchart-v2-pointEnd)" style="" class="edge-thickness-normal edge-pattern-solid edge-thickness-normal edge-pattern-solid flowchart-link" id="L_Plates_Boundaries_0" d="M1926.906,423L1937.477,423C1948.047,423,1969.188,423,1989.684,425.669C2010.181,428.337,2030.034,433.675,2039.961,436.343L2049.887,439.012"/><path marker-end="url(#my-svg_flowchart-v2-pointEnd)" style="" class="edge-thickness-normal edge-pattern-solid edge-thickness-normal edge-pattern-solid flowchart-link" id="L_Boundaries_Divergent_0" d="M2204.527,436L2231.697,385C2258.867,334,2313.207,232,2350.111,181C2387.016,130,2406.484,130,2416.219,130L2425.953,130"/><path marker-end="url(#my-svg_flowchart-v2-pointEnd)" style="" class="edge-thickness-normal edge-pattern-solid edge-thickness-normal edge-pattern-solid flowchart-link" id="L_Boundaries_Convergent_0" d="M2256.894,436L2275.336,426.167C2293.778,416.333,2330.662,396.667,2359.562,386.833C2388.461,377,2409.375,377,2419.832,377L2430.289,377"/><path marker-end="url(#my-svg_flowchart-v2-pointEnd)" style="" class="edge-thickness-normal edge-pattern-solid edge-thickness-normal edge-pattern-solid flowchart-link" id="L_Boundaries_Transform_0" d="M2252.674,514L2271.819,524.833C2290.965,535.667,2329.256,557.333,2360.322,568.167C2391.388,579,2415.229,579,2427.15,579L2439.07,579"/><path marker-end="url(#my-svg_flowchart-v2-pointEnd)" style="" class="edge-thickness-normal edge-pattern-solid edge-thickness-normal edge-pattern-solid flowchart-link" id="L_Divergent_RiftValley_0" d="M2601.641,103L2622.865,91.667C2644.089,80.333,2686.537,57.667,2720.848,46.333C2755.159,35,2781.333,35,2794.421,35L2807.508,35"/><path marker-end="url(#my-svg_flowchart-v2-pointEnd)" style="" class="edge-thickness-normal edge-pattern-solid edge-thickness-normal edge-pattern-solid flowchart-link" id="L_Divergent_MidOceanRidge_0" d="M2672.203,144.298L2681.667,145.415C2691.13,146.532,2710.057,148.766,2726.883,149.883C2743.708,151,2758.432,151,2765.794,151L2773.156,151"/><path marker-end="url(#my-svg_flowchart-v2-pointEnd)" style="" class="edge-thickness-normal edge-pattern-solid edge-thickness-normal edge-pattern-solid flowchart-link" id="L_Convergent_Trench_0" d="M2594.746,350L2617.119,336.167C2639.492,322.333,2684.238,294.667,2716.88,280.833C2749.521,267,2770.057,267,2780.326,267L2790.594,267"/><path marker-end="url(#my-svg_flowchart-v2-pointEnd)" style="" class="edge-thickness-normal edge-pattern-solid edge-thickness-normal edge-pattern-solid flowchart-link" id="L_Convergent_VolcanicArc_0" d="M2667.867,373.061L2678.053,372.718C2688.24,372.374,2708.612,371.687,2729.646,371.344C2750.68,371,2772.375,371,2783.223,371L2794.07,371"/><path marker-end="url(#my-svg_flowchart-v2-pointEnd)" style="" class="edge-thickness-normal edge-pattern-solid edge-thickness-normal edge-pattern-solid flowchart-link" id="L_Convergent_Mountains_0" d="M2600.093,404L2621.575,415.833C2643.057,427.667,2686.021,451.333,2719.613,463.167C2753.206,475,2777.427,475,2789.538,475L2801.648,475"/><path marker-end="url(#my-svg_flowchart-v2-pointEnd)" style="" class="edge-thickness-normal edge-pattern-solid edge-thickness-normal edge-pattern-solid flowchart-link" id="L_Transform_Fault_0" d="M2659.086,579L2670.736,579C2682.385,579,2705.685,579,2728.757,579C2751.828,579,2774.672,579,2786.094,579L2797.516,579"/><path marker-end="url(#my-svg_flowchart-v2-pointEnd)" style="" class="edge-thickness-normal edge-pattern-solid edge-thickness-normal edge-pattern-solid flowchart-link" id="L_Boundaries_Features_0" d="M2224.02,514L2247.941,537.167C2271.862,560.333,2319.705,606.667,2363.893,639.22C2408.081,671.773,2448.616,690.546,2468.883,699.932L2489.15,709.319"/><path marker-end="url(#my-svg_flowchart-v2-pointEnd)" style="" class="edge-thickness-normal edge-pattern-solid edge-thickness-normal edge-pattern-solid flowchart-link" id="L_BoundaryType_Boundaries_0" d="M1915.156,617L1927.685,617C1940.214,617,1965.271,617,2000.645,600.228C2036.02,583.456,2081.711,549.911,2104.557,533.139L2127.403,516.367"/><path marker-end="url(#my-svg_flowchart-v2-pointEnd)" style="" class="edge-thickness-normal edge-pattern-solid edge-thickness-normal edge-pattern-solid flowchart-link" id="L_Rate_SimulationTime_0" d="M2293.031,885L2305.451,885C2317.87,885,2342.708,885,2363.437,886.449C2384.166,887.898,2400.784,890.795,2409.094,892.244L2417.403,893.693"/><path marker-end="url(#my-svg_flowchart-v2-pointEnd)" style="" class="edge-thickness-normal edge-pattern-solid edge-thickness-normal edge-pattern-solid flowchart-link" id="L_SimulationTime_Lithosphere_0" d="M2421.344,938.206L2412.378,939.672C2403.411,941.138,2385.479,944.069,2345.88,945.534C2306.281,947,2245.016,947,2182.146,947C2119.276,947,2054.802,947,1991.051,947C1927.299,947,1864.271,947,1800.522,947C1736.773,947,1672.305,947,1616.58,919.838C1560.856,892.675,1513.876,838.35,1490.386,811.188L1466.896,784.026"/><path marker-end="url(#my-svg_flowchart-v2-pointEnd)" style="" class="edge-thickness-normal edge-pattern-solid edge-thickness-normal edge-pattern-solid flowchart-link" id="L_RecordButton_Features_0" d="M247.188,691.109L258.949,690.091C270.711,689.073,294.234,687.036,334.626,686.018C375.018,685,432.279,685,488.202,685C544.125,685,598.711,685,651.086,685C703.461,685,753.625,685,803.095,685C852.565,685,901.341,685,952.589,685C1003.836,685,1057.555,685,1113.074,685C1168.594,685,1225.914,685,1280.857,685C1335.799,685,1388.365,685,1442.465,685C1496.565,685,1552.201,685,1612.253,685C1672.305,685,1736.773,685,1800.522,685C1864.271,685,1927.299,685,1991.051,685C2054.802,685,2119.276,685,2182.146,685C2245.016,685,2306.281,685,2351.279,689.148C2396.277,693.297,2425.008,701.593,2439.373,705.742L2453.738,709.89"/><path marker-end="url(#my-svg_flowchart-v2-pointEnd)" style="" class="edge-thickness-normal edge-pattern-solid edge-thickness-normal edge-pattern-solid flowchart-link" id="L_MeasureTool_Features_0" d="M257.844,817.814L267.829,818.678C277.815,819.542,297.786,821.271,336.402,822.136C375.018,823,432.279,823,488.202,823C544.125,823,598.711,823,651.086,823C703.461,823,753.625,823,803.095,823C852.565,823,901.341,823,952.589,823C1003.836,823,1057.555,823,1113.074,823C1168.594,823,1225.914,823,1280.857,823C1335.799,823,1388.365,823,1442.465,823C1496.565,823,1552.201,823,1612.253,823C1672.305,823,1736.773,823,1800.522,823C1864.271,823,1927.299,823,1991.051,823C2054.802,823,2119.276,823,2182.146,823C2245.016,823,2306.281,823,2357.181,813.614C2408.081,804.227,2448.616,785.454,2468.883,776.068L2489.15,766.681"/><path marker-end="url(#my-svg_flowchart-v2-pointEnd)" style="" class="edge-thickness-normal edge-pattern-solid edge-thickness-normal edge-pattern-solid flowchart-link" id="L_RecordButton_DataTable_0" d="M247.188,720.164L258.949,722.137C270.711,724.109,294.234,728.055,315.321,731.222C336.407,734.388,355.055,736.777,364.38,737.971L373.704,739.165"/><path marker-end="url(#my-svg_flowchart-v2-pointEnd)" style="" class="edge-thickness-normal edge-pattern-solid edge-thickness-normal edge-pattern-solid flowchart-link" id="L_MeasureTool_DataTable_0" d="M257.844,786.049L267.829,784.374C277.815,782.699,297.786,779.35,317.097,776.481C336.407,773.612,355.055,771.223,364.38,770.029L373.704,768.835"/><path marker-end="url(#my-svg_flowchart-v2-pointEnd)" style="" class="edge-thickness-normal edge-pattern-solid edge-thickness-normal edge-pattern-solid flowchart-link" id="L_DataTable_AnalysisPanel_0" d="M601.406,754L610.055,754C618.703,754,636,754,652.63,754C669.26,754,685.224,754,693.206,754L701.188,754"/><path marker-end="url(#my-svg_flowchart-v2-pointEnd)" style="" class="edge-thickness-normal edge-pattern-solid edge-thickness-normal edge-pattern-solid flowchart-link" id="L_AnalysisPanel_PredictionTool_0" d="M902.391,754L910.345,754C918.299,754,934.208,754,949.451,754C964.693,754,979.268,754,986.556,754L993.844,754"/><path marker-end="url(#my-svg_flowchart-v2-pointEnd)" style="" class="edge-thickness-normal edge-pattern-solid edge-thickness-normal edge-pattern-solid flowchart-link" id="L_PredictionTool_Lithosphere_0" d="M1224.703,754L1234.458,754C1244.214,754,1263.724,754,1282.568,754C1301.411,754,1319.589,754,1328.677,754L1337.766,754"/></g><g class="edgeLabels"><g transform="translate(1607.8359375, 423)" class="edgeLabel"><g transform="translate(-42.7421875, -12)" class="label"><foreignObject height="24" width="85.484375"><div style="display: table-cell; white-space: nowrap; line-height: 1.5; max-width: 200px; text-align: center;" class="labelBkg" xmlns="http://www.w3.org/1999/xhtml"><span class="edgeLabel"><p>divided into</p></span></div></foreignObject></g></g><g transform="translate(1990.328125, 343)" class="edgeLabel"><g transform="translate(-35.5703125, -12)" class="label"><foreignObject height="24" width="71.140625"><div style="display: table-cell; white-space: nowrap; line-height: 1.5; max-width: 200px; text-align: center;" class="labelBkg" xmlns="http://www.w3.org/1999/xhtml"><span class="edgeLabel"><p>glide over</p></span></div></foreignObject></g></g><g transform="translate(1990.328125, 885)" class="edgeLabel"><g transform="translate(-29, -12)" class="label"><foreignObject height="24" width="58"><div style="display: table-cell; white-space: nowrap; line-height: 1.5; max-width: 200px; text-align: center;" class="labelBkg" xmlns="http://www.w3.org/1999/xhtml"><span class="edgeLabel"><p>move at</p></span></div></foreignObject></g></g><g transform="translate(1990.328125, 423)" class="edgeLabel"><g transform="translate(-38.421875, -12)" class="label"><foreignObject height="24" width="76.84375"><div style="display: table-cell; white-space: nowrap; line-height: 1.5; max-width: 200px; text-align: center;" class="labelBkg" xmlns="http://www.w3.org/1999/xhtml"><span class="edgeLabel"><p>interact at</p></span></div></foreignObject></g></g><g transform="translate(2367.546875, 130)" class="edgeLabel"><g transform="translate(-26.1640625, -12)" class="label"><foreignObject height="24" width="52.328125"><div style="display: table-cell; white-space: nowrap; line-height: 1.5; max-width: 200px; text-align: center;" class="labelBkg" xmlns="http://www.w3.org/1999/xhtml"><span class="edgeLabel"><p>include</p></span></div></foreignObject></g></g><g transform="translate(2367.546875, 377)" class="edgeLabel"><g transform="translate(-26.1640625, -12)" class="label"><foreignObject height="24" width="52.328125"><div style="display: table-cell; white-space: nowrap; line-height: 1.5; max-width: 200px; text-align: center;" class="labelBkg" xmlns="http://www.w3.org/1999/xhtml"><span class="edgeLabel"><p>include</p></span></div></foreignObject></g></g><g transform="translate(2367.546875, 579)" class="edgeLabel"><g transform="translate(-26.1640625, -12)" class="label"><foreignObject height="24" width="52.328125"><div style="display: table-cell; white-space: nowrap; line-height: 1.5; max-width: 200px; text-align: center;" class="labelBkg" xmlns="http://www.w3.org/1999/xhtml"><span class="edgeLabel"><p>include</p></span></div></foreignObject></g></g><g transform="translate(2728.984375, 35)" class="edgeLabel"><g transform="translate(-23.171875, -12)" class="label"><foreignObject height="24" width="46.34375"><div style="display: table-cell; white-space: nowrap; line-height: 1.5; max-width: 200px; text-align: center;" class="labelBkg" xmlns="http://www.w3.org/1999/xhtml"><span class="edgeLabel"><p>create</p></span></div></foreignObject></g></g><g transform="translate(2728.984375, 151)" class="edgeLabel"><g transform="translate(-23.171875, -12)" class="label"><foreignObject height="24" width="46.34375"><div style="display: table-cell; white-space: nowrap; line-height: 1.5; max-width: 200px; text-align: center;" class="labelBkg" xmlns="http://www.w3.org/1999/xhtml"><span class="edgeLabel"><p>create</p></span></div></foreignObject></g></g><g transform="translate(2728.984375, 267)" class="edgeLabel"><g transform="translate(-23.171875, -12)" class="label"><foreignObject height="24" width="46.34375"><div style="display: table-cell; white-space: nowrap; line-height: 1.5; max-width: 200px; text-align: center;" class="labelBkg" xmlns="http://www.w3.org/1999/xhtml"><span class="edgeLabel"><p>create</p></span></div></foreignObject></g></g><g transform="translate(2728.984375, 371)" class="edgeLabel"><g transform="translate(-23.171875, -12)" class="label"><foreignObject height="24" width="46.34375"><div style="display: table-cell; white-space: nowrap; line-height: 1.5; max-width: 200px; text-align: center;" class="labelBkg" xmlns="http://www.w3.org/1999/xhtml"><span class="edgeLabel"><p>create</p></span></div></foreignObject></g></g><g transform="translate(2728.984375, 475)" class="edgeLabel"><g transform="translate(-23.171875, -12)" class="label"><foreignObject height="24" width="46.34375"><div style="display: table-cell; white-space: nowrap; line-height: 1.5; max-width: 200px; text-align: center;" class="labelBkg" xmlns="http://www.w3.org/1999/xhtml"><span class="edgeLabel"><p>create</p></span></div></foreignObject></g></g><g transform="translate(2728.984375, 579)" class="edgeLabel"><g transform="translate(-23.171875, -12)" class="label"><foreignObject height="24" width="46.34375"><div style="display: table-cell; white-space: nowrap; line-height: 1.5; max-width: 200px; text-align: center;" class="labelBkg" xmlns="http://www.w3.org/1999/xhtml"><span class="edgeLabel"><p>create</p></span></div></foreignObject></g></g><g transform="translate(2367.546875, 653)" class="edgeLabel"><g transform="translate(-17, -12)" class="label"><foreignObject height="24" width="34"><div style="display: table-cell; white-space: nowrap; line-height: 1.5; max-width: 200px; text-align: center;" class="labelBkg" xmlns="http://www.w3.org/1999/xhtml"><span class="edgeLabel"><p>form</p></span></div></foreignObject></g></g><g transform="translate(1990.328125, 617)" class="edgeLabel"><g transform="translate(-36.9609375, -12)" class="label"><foreignObject height="24" width="73.921875"><div style="display: table-cell; white-space: nowrap; line-height: 1.5; max-width: 200px; text-align: center;" class="labelBkg" xmlns="http://www.w3.org/1999/xhtml"><span class="edgeLabel"><p>configures</p></span></div></foreignObject></g></g><g transform="translate(2367.546875, 885)" class="edgeLabel"><g transform="translate(-28.796875, -12)" class="label"><foreignObject height="24" width="57.59375"><div style="display: table-cell; white-space: nowrap; line-height: 1.5; max-width: 200px; text-align: center;" class="labelBkg" xmlns="http://www.w3.org/1999/xhtml"><span class="edgeLabel"><p>controls</p></span></div></foreignObject></g></g><g transform="translate(1990.328125, 947)" class="edgeLabel"><g transform="translate(-15.09375, -12)" class="label"><foreignObject height="24" width="30.1875"><div style="display: table-cell; white-space: nowrap; line-height: 1.5; max-width: 200px; text-align: center;" class="labelBkg" xmlns="http://www.w3.org/1999/xhtml"><span class="edgeLabel"><p>runs</p></span></div></foreignObject></g></g><g transform="translate(1283.234375, 685)" class="edgeLabel"><g transform="translate(-30.875, -12)" class="label"><foreignObject height="24" width="61.75"><div style="display: table-cell; white-space: nowrap; line-height: 1.5; max-width: 200px; text-align: center;" class="labelBkg" xmlns="http://www.w3.org/1999/xhtml"><span class="edgeLabel"><p>captures</p></span></div></foreignObject></g></g><g transform="translate(1283.234375, 823)" class="edgeLabel"><g transform="translate(-33.53125, -12)" class="label"><foreignObject height="24" width="67.0625"><div style="display: table-cell; white-space: nowrap; line-height: 1.5; max-width: 200px; text-align: center;" class="labelBkg" xmlns="http://www.w3.org/1999/xhtml"><span class="edgeLabel"><p>measures</p></span></div></foreignObject></g></g><g transform="translate(317.7578125, 732)" class="edgeLabel"><g transform="translate(-34.9140625, -12)" class="label"><foreignObject height="24" width="69.828125"><div style="display: table-cell; white-space: nowrap; line-height: 1.5; max-width: 200px; text-align: center;" class="labelBkg" xmlns="http://www.w3.org/1999/xhtml"><span class="edgeLabel"><p>populates</p></span></div></foreignObject></g></g><g transform="translate(317.7578125, 776)" class="edgeLabel"><g transform="translate(-34.9140625, -12)" class="label"><foreignObject height="24" width="69.828125"><div style="display: table-cell; white-space: nowrap; line-height: 1.5; max-width: 200px; text-align: center;" class="labelBkg" xmlns="http://www.w3.org/1999/xhtml"><span class="edgeLabel"><p>populates</p></span></div></foreignObject></g></g><g transform="translate(653.296875, 754)" class="edgeLabel"><g transform="translate(-26.890625, -12)" class="label"><foreignObject height="24" width="53.78125"><div style="display: table-cell; white-space: nowrap; line-height: 1.5; max-width: 200px; text-align: center;" class="labelBkg" xmlns="http://www.w3.org/1999/xhtml"><span class="edgeLabel"><p>informs</p></span></div></foreignObject></g></g><g transform="translate(950.1171875, 754)" class="edgeLabel"><g transform="translate(-22.7265625, -12)" class="label"><foreignObject height="24" width="45.453125"><div style="display: table-cell; white-space: nowrap; line-height: 1.5; max-width: 200px; text-align: center;" class="labelBkg" xmlns="http://www.w3.org/1999/xhtml"><span class="edgeLabel"><p>guides</p></span></div></foreignObject></g></g><g transform="translate(1283.234375, 754)" class="edgeLabel"><g transform="translate(-30.515625, -12)" class="label"><foreignObject height="24" width="61.03125"><div style="display: table-cell; white-space: nowrap; line-height: 1.5; max-width: 200px; text-align: center;" class="labelBkg" xmlns="http://www.w3.org/1999/xhtml"><span class="edgeLabel"><p>modifies</p></span></div></foreignObject></g></g></g><g class="nodes"><g transform="translate(1440.9296875, 754)" id="flowchart-Lithosphere-0" class="node default"><rect height="54" width="198.328125" y="-27" x="-99.1640625" style="" class="basic label-container"/><g transform="translate(-69.1640625, -12)" style="" class="label"><rect/><foreignObject height="24" width="138.328125"><div style="display: table-cell; white-space: nowrap; line-height: 1.5; max-width: 200px; text-align: center;" xmlns="http://www.w3.org/1999/xhtml"><span class="nodeLabel"><p>Virtual Earth Model</p></span></div></foreignObject></g></g><g transform="translate(2183.75, 343)" id="flowchart-Asthenosphere-1" class="node default"><rect height="54" width="228.671875" y="-27" x="-114.3359375" style="" class="basic label-container"/><g transform="translate(-84.3359375, -12)" style="" class="label"><rect/><foreignObject height="24" width="168.671875"><div style="display: table-cell; white-space: nowrap; line-height: 1.5; max-width: 200px; text-align: center;" xmlns="http://www.w3.org/1999/xhtml"><span class="nodeLabel"><p>Simulated Mantle Layer</p></span></div></foreignObject></g></g><g transform="translate(1801.2421875, 423)" id="flowchart-Plates-2" class="node default"><rect height="54" width="251.328125" y="-27" x="-125.6640625" style="" class="basic label-container"/><g transform="translate(-95.6640625, -12)" style="" class="label"><rect/><foreignObject height="24" width="191.328125"><div style="display: table-cell; white-space: nowrap; line-height: 1.5; max-width: 200px; text-align: center;" xmlns="http://www.w3.org/1999/xhtml"><span class="nodeLabel"><p>Interactive Tectonic Plates</p></span></div></foreignObject></g></g><g transform="translate(2183.75, 475)" id="flowchart-Boundaries-3" class="node default"><rect height="78" width="260" y="-39" x="-130" style="" class="basic label-container"/><g transform="translate(-100, -24)" style="" class="label"><rect/><foreignObject height="48" width="200"><div style="display: table; white-space: break-spaces; line-height: 1.5; max-width: 200px; text-align: center; width: 200px;" xmlns="http://www.w3.org/1999/xhtml"><span class="nodeLabel"><p>Configurable Plate Interfaces</p></span></div></foreignObject></g></g><g transform="translate(2551.078125, 130)" id="flowchart-Divergent-4" class="node default"><rect height="54" width="242.25" y="-27" x="-121.125" style="" class="basic label-container"/><g transform="translate(-91.125, -12)" style="" class="label"><rect/><foreignObject height="24" width="182.25"><div style="display: table-cell; white-space: nowrap; line-height: 1.5; max-width: 200px; text-align: center;" xmlns="http://www.w3.org/1999/xhtml"><span class="nodeLabel"><p>Spreading Center Creator</p></span></div></foreignObject></g></g><g transform="translate(2551.078125, 377)" id="flowchart-Convergent-5" class="node default"><rect height="54" width="233.578125" y="-27" x="-116.7890625" style="" class="basic label-container"/><g transform="translate(-86.7890625, -12)" style="" class="label"><rect/><foreignObject height="24" width="173.578125"><div style="display: table-cell; white-space: nowrap; line-height: 1.5; max-width: 200px; text-align: center;" xmlns="http://www.w3.org/1999/xhtml"><span class="nodeLabel"><p>Collision Zone Simulator</p></span></div></foreignObject></g></g><g transform="translate(2551.078125, 579)" id="flowchart-Transform-6" class="node default"><rect height="54" width="216.015625" y="-27" x="-108.0078125" style="" class="basic label-container"/><g transform="translate(-78.0078125, -12)" style="" class="label"><rect/><foreignObject height="24" width="156.015625"><div style="display: table-cell; white-space: nowrap; line-height: 1.5; max-width: 200px; text-align: center;" xmlns="http://www.w3.org/1999/xhtml"><span class="nodeLabel"><p>Lateral Boundary Tool</p></span></div></foreignObject></g></g><g transform="translate(2551.078125, 738)" id="flowchart-Features-7" class="node default"><rect height="54" width="215.09375" y="-27" x="-107.546875" style="" class="basic label-container"/><g transform="translate(-77.546875, -12)" style="" class="label"><rect/><foreignObject height="24" width="155.09375"><div style="display: table-cell; white-space: nowrap; line-height: 1.5; max-width: 200px; text-align: center;" xmlns="http://www.w3.org/1999/xhtml"><span class="nodeLabel"><p>Generated Landforms</p></span></div></foreignObject></g></g><g transform="translate(2183.75, 885)" id="flowchart-Rate-8" class="node default"><rect height="54" width="218.5625" y="-27" x="-109.28125" style="" class="basic label-container"/><g transform="translate(-79.28125, -12)" style="" class="label"><rect/><foreignObject height="24" width="158.5625"><div style="display: table-cell; white-space: nowrap; line-height: 1.5; max-width: 200px; text-align: center;" xmlns="http://www.w3.org/1999/xhtml"><span class="nodeLabel"><p>Adjustable Time Scale</p></span></div></foreignObject></g></g><g transform="translate(2907.15625, 35)" id="flowchart-RiftValley-9" class="node default"><rect height="54" width="191.296875" y="-27" x="-95.6484375" style="" class="basic label-container"/><g transform="translate(-65.6484375, -12)" style="" class="label"><rect/><foreignObject height="24" width="131.296875"><div style="display: table-cell; white-space: nowrap; line-height: 1.5; max-width: 200px; text-align: center;" xmlns="http://www.w3.org/1999/xhtml"><span class="nodeLabel"><p>Digital Rift Valleys</p></span></div></foreignObject></g></g><g transform="translate(2907.15625, 151)" id="flowchart-MidOceanRidge-10" class="node default"><rect height="78" width="260" y="-39" x="-130" style="" class="basic label-container"/><g transform="translate(-100, -24)" style="" class="label"><rect/><foreignObject height="48" width="200"><div style="display: table; white-space: break-spaces; line-height: 1.5; max-width: 200px; text-align: center; width: 200px;" xmlns="http://www.w3.org/1999/xhtml"><span class="nodeLabel"><p>Simulated Mid-Ocean Ridges</p></span></div></foreignObject></g></g><g transform="translate(2907.15625, 267)" id="flowchart-Trench-11" class="node default"><rect height="54" width="225.125" y="-27" x="-112.5625" style="" class="basic label-container"/><g transform="translate(-82.5625, -12)" style="" class="label"><rect/><foreignObject height="24" width="165.125"><div style="display: table-cell; white-space: nowrap; line-height: 1.5; max-width: 200px; text-align: center;" xmlns="http://www.w3.org/1999/xhtml"><span class="nodeLabel"><p>Virtual Ocean Trenches</p></span></div></foreignObject></g></g><g transform="translate(2907.15625, 371)" id="flowchart-VolcanicArc-12" class="node default"><rect height="54" width="218.171875" y="-27" x="-109.0859375" style="" class="basic label-container"/><g transform="translate(-79.0859375, -12)" style="" class="label"><rect/><foreignObject height="24" width="158.171875"><div style="display: table-cell; white-space: nowrap; line-height: 1.5; max-width: 200px; text-align: center;" xmlns="http://www.w3.org/1999/xhtml"><span class="nodeLabel"><p>Erupting Volcanic Arcs</p></span></div></foreignObject></g></g><g transform="translate(2907.15625, 475)" id="flowchart-Mountains-13" class="node default"><rect height="54" width="203.015625" y="-27" x="-101.5078125" style="" class="basic label-container"/><g transform="translate(-71.5078125, -12)" style="" class="label"><rect/><foreignObject height="24" width="143.015625"><div style="display: table-cell; white-space: nowrap; line-height: 1.5; max-width: 200px; text-align: center;" xmlns="http://www.w3.org/1999/xhtml"><span class="nodeLabel"><p>3D Mountain Ranges</p></span></div></foreignObject></g></g><g transform="translate(2907.15625, 579)" id="flowchart-Fault-14" class="node default"><rect height="54" width="211.28125" y="-27" x="-105.640625" style="" class="basic label-container"/><g transform="translate(-75.640625, -12)" style="" class="label"><rect/><foreignObject height="24" width="151.28125"><div style="display: table-cell; white-space: nowrap; line-height: 1.5; max-width: 200px; text-align: center;" xmlns="http://www.w3.org/1999/xhtml"><span class="nodeLabel"><p>Animated Fault Lines</p></span></div></foreignObject></g></g><g transform="translate(1801.2421875, 617)" id="flowchart-BoundaryType-15" class="node default"><rect height="54" width="227.828125" y="-27" x="-113.9140625" style="" class="basic label-container"/><g transform="translate(-83.9140625, -12)" style="" class="label"><rect/><foreignObject height="24" width="167.828125"><div style="display: table-cell; white-space: nowrap; line-height: 1.5; max-width: 200px; text-align: center;" xmlns="http://www.w3.org/1999/xhtml"><span class="nodeLabel"><p>Boundary Type Selector</p></span></div></foreignObject></g></g><g transform="translate(2551.078125, 917)" id="flowchart-SimulationTime-16" class="node default"><rect height="54" width="259.46875" y="-27" x="-129.734375" style="" class="basic label-container"/><g transform="translate(-99.734375, -12)" style="" class="label"><rect/><foreignObject height="24" width="199.46875"><div style="display: table-cell; white-space: nowrap; line-height: 1.5; max-width: 200px; text-align: center;" xmlns="http://www.w3.org/1999/xhtml"><span class="nodeLabel"><p>Simulation Duration Control</p></span></div></foreignObject></g></g><g transform="translate(132.921875, 701)" id="flowchart-RecordButton-17" class="node default"><rect height="54" width="228.53125" y="-27" x="-114.265625" style="" class="basic label-container"/><g transform="translate(-84.265625, -12)" style="" class="label"><rect/><foreignObject height="24" width="168.53125"><div style="display: table-cell; white-space: nowrap; line-height: 1.5; max-width: 200px; text-align: center;" xmlns="http://www.w3.org/1999/xhtml"><span class="nodeLabel"><p>Record Features Button</p></span></div></foreignObject></g></g><g transform="translate(132.921875, 807)" id="flowchart-MeasureTool-18" class="node default"><rect height="54" width="249.84375" y="-27" x="-124.921875" style="" class="basic label-container"/><g transform="translate(-94.921875, -12)" style="" class="label"><rect/><foreignObject height="24" width="189.84375"><div style="display: table-cell; white-space: nowrap; line-height: 1.5; max-width: 200px; text-align: center;" xmlns="http://www.w3.org/1999/xhtml"><span class="nodeLabel"><p>Feature Measurement Tool</p></span></div></foreignObject></g></g><g transform="translate(489.5390625, 754)" id="flowchart-DataTable-19" class="node default"><rect height="54" width="223.734375" y="-27" x="-111.8671875" style="" class="basic label-container"/><g transform="translate(-81.8671875, -12)" style="" class="label"><rect/><foreignObject height="24" width="163.734375"><div style="display: table-cell; white-space: nowrap; line-height: 1.5; max-width: 200px; text-align: center;" xmlns="http://www.w3.org/1999/xhtml"><span class="nodeLabel"><p>Data Comparison Table</p></span></div></foreignObject></g></g><g transform="translate(803.7890625, 754)" id="flowchart-AnalysisPanel-20" class="node default"><rect height="54" width="197.203125" y="-27" x="-98.6015625" style="" class="basic label-container"/><g transform="translate(-68.6015625, -12)" style="" class="label"><rect/><foreignObject height="24" width="137.203125"><div style="display: table-cell; white-space: nowrap; line-height: 1.5; max-width: 200px; text-align: center;" xmlns="http://www.w3.org/1999/xhtml"><span class="nodeLabel"><p>Data Analysis Panel</p></span></div></foreignObject></g></g><g transform="translate(1111.2734375, 754)" id="flowchart-PredictionTool-21" class="node default"><rect height="54" width="226.859375" y="-27" x="-113.4296875" style="" class="basic label-container"/><g transform="translate(-83.4296875, -12)" style="" class="label"><rect/><foreignObject height="24" width="166.859375"><div style="display: table-cell; white-space: nowrap; line-height: 1.5; max-width: 200px; text-align: center;" xmlns="http://www.w3.org/1999/xhtml"><span class="nodeLabel"><p>Feature Prediction Tool</p></span></div></foreignObject></g></g></g></g></g></svg>