<svg aria-roledescription="flowchart-v2" role="graphics-document document" viewBox="0 0 2589.578125 660" style="max-width: 2589.58px; background-color: white;" class="flowchart" xmlns:xlink="http://www.w3.org/1999/xlink" xmlns="http://www.w3.org/2000/svg" width="100%" id="my-svg"><style>#my-svg{font-family:"trebuchet ms",verdana,arial,sans-serif;font-size:16px;fill:#333;}@keyframes edge-animation-frame{from{stroke-dashoffset:0;}}@keyframes dash{to{stroke-dashoffset:0;}}#my-svg .edge-animation-slow{stroke-dasharray:9,5!important;stroke-dashoffset:900;animation:dash 50s linear infinite;stroke-linecap:round;}#my-svg .edge-animation-fast{stroke-dasharray:9,5!important;stroke-dashoffset:900;animation:dash 20s linear infinite;stroke-linecap:round;}#my-svg .error-icon{fill:#552222;}#my-svg .error-text{fill:#552222;stroke:#552222;}#my-svg .edge-thickness-normal{stroke-width:1px;}#my-svg .edge-thickness-thick{stroke-width:3.5px;}#my-svg .edge-pattern-solid{stroke-dasharray:0;}#my-svg .edge-thickness-invisible{stroke-width:0;fill:none;}#my-svg .edge-pattern-dashed{stroke-dasharray:3;}#my-svg .edge-pattern-dotted{stroke-dasharray:2;}#my-svg .marker{fill:#333333;stroke:#333333;}#my-svg .marker.cross{stroke:#333333;}#my-svg svg{font-family:"trebuchet ms",verdana,arial,sans-serif;font-size:16px;}#my-svg p{margin:0;}#my-svg .label{font-family:"trebuchet ms",verdana,arial,sans-serif;color:#333;}#my-svg .cluster-label text{fill:#333;}#my-svg .cluster-label span{color:#333;}#my-svg .cluster-label span p{background-color:transparent;}#my-svg .label text,#my-svg span{fill:#333;color:#333;}#my-svg .node rect,#my-svg .node circle,#my-svg .node ellipse,#my-svg .node polygon,#my-svg .node path{fill:#ECECFF;stroke:#9370DB;stroke-width:1px;}#my-svg .rough-node .label text,#my-svg .node .label text,#my-svg .image-shape .label,#my-svg .icon-shape .label{text-anchor:middle;}#my-svg .node .katex path{fill:#000;stroke:#000;stroke-width:1px;}#my-svg .rough-node .label,#my-svg .node .label,#my-svg .image-shape .label,#my-svg .icon-shape .label{text-align:center;}#my-svg .node.clickable{cursor:pointer;}#my-svg .root .anchor path{fill:#333333!important;stroke-width:0;stroke:#333333;}#my-svg .arrowheadPath{fill:#333333;}#my-svg .edgePath .path{stroke:#333333;stroke-width:2.0px;}#my-svg .flowchart-link{stroke:#333333;fill:none;}#my-svg .edgeLabel{background-color:rgba(232,232,232, 0.8);text-align:center;}#my-svg .edgeLabel p{background-color:rgba(232,232,232, 0.8);}#my-svg .edgeLabel rect{opacity:0.5;background-color:rgba(232,232,232, 0.8);fill:rgba(232,232,232, 0.8);}#my-svg .labelBkg{background-color:rgba(232, 232, 232, 0.5);}#my-svg .cluster rect{fill:#ffffde;stroke:#aaaa33;stroke-width:1px;}#my-svg .cluster text{fill:#333;}#my-svg .cluster span{color:#333;}#my-svg div.mermaidTooltip{position:absolute;text-align:center;max-width:200px;padding:2px;font-family:"trebuchet ms",verdana,arial,sans-serif;font-size:12px;background:hsl(80, 100%, 96.2745098039%);border:1px solid #aaaa33;border-radius:2px;pointer-events:none;z-index:100;}#my-svg .flowchartTitleText{text-anchor:middle;font-size:18px;fill:#333;}#my-svg rect.text{fill:none;stroke-width:0;}#my-svg .icon-shape,#my-svg .image-shape{background-color:rgba(232,232,232, 0.8);text-align:center;}#my-svg .icon-shape p,#my-svg .image-shape p{background-color:rgba(232,232,232, 0.8);padding:2px;}#my-svg .icon-shape rect,#my-svg .image-shape rect{opacity:0.5;background-color:rgba(232,232,232, 0.8);fill:rgba(232,232,232, 0.8);}#my-svg .label-icon{display:inline-block;height:1em;overflow:visible;vertical-align:-0.125em;}#my-svg .node .label-icon path{fill:currentColor;stroke:revert;stroke-width:revert;}#my-svg :root{--mermaid-font-family:"trebuchet ms",verdana,arial,sans-serif;}</style><g><marker orient="auto" markerHeight="8" markerWidth="8" markerUnits="userSpaceOnUse" refY="5" refX="5" viewBox="0 0 10 10" class="marker flowchart-v2" id="my-svg_flowchart-v2-pointEnd"><path style="stroke-width: 1; stroke-dasharray: 1, 0;" class="arrowMarkerPath" d="M 0 0 L 10 5 L 0 10 z"/></marker><marker orient="auto" markerHeight="8" markerWidth="8" markerUnits="userSpaceOnUse" refY="5" refX="4.5" viewBox="0 0 10 10" class="marker flowchart-v2" id="my-svg_flowchart-v2-pointStart"><path style="stroke-width: 1; stroke-dasharray: 1, 0;" class="arrowMarkerPath" d="M 0 5 L 10 10 L 10 0 z"/></marker><marker orient="auto" markerHeight="11" markerWidth="11" markerUnits="userSpaceOnUse" refY="5" refX="11" viewBox="0 0 10 10" class="marker flowchart-v2" id="my-svg_flowchart-v2-circleEnd"><circle style="stroke-width: 1; stroke-dasharray: 1, 0;" class="arrowMarkerPath" r="5" cy="5" cx="5"/></marker><marker orient="auto" markerHeight="11" markerWidth="11" markerUnits="userSpaceOnUse" refY="5" refX="-1" viewBox="0 0 10 10" class="marker flowchart-v2" id="my-svg_flowchart-v2-circleStart"><circle style="stroke-width: 1; stroke-dasharray: 1, 0;" class="arrowMarkerPath" r="5" cy="5" cx="5"/></marker><marker orient="auto" markerHeight="11" markerWidth="11" markerUnits="userSpaceOnUse" refY="5.2" refX="12" viewBox="0 0 11 11" class="marker cross flowchart-v2" id="my-svg_flowchart-v2-crossEnd"><path style="stroke-width: 2; stroke-dasharray: 1, 0;" class="arrowMarkerPath" d="M 1,1 l 9,9 M 10,1 l -9,9"/></marker><marker orient="auto" markerHeight="11" markerWidth="11" markerUnits="userSpaceOnUse" refY="5.2" refX="-1" viewBox="0 0 11 11" class="marker cross flowchart-v2" id="my-svg_flowchart-v2-crossStart"><path style="stroke-width: 2; stroke-dasharray: 1, 0;" class="arrowMarkerPath" d="M 1,1 l 9,9 M 10,1 l -9,9"/></marker><g class="root"><g class="clusters"/><g class="edgePaths"><path marker-end="url(#my-svg_flowchart-v2-pointEnd)" style="" class="edge-thickness-normal edge-pattern-solid edge-thickness-normal edge-pattern-solid flowchart-link" id="L_TrainingSelector_Vaccine_0" d="M252.297,547L260.579,547C268.862,547,285.427,547,301.326,547C317.224,547,332.456,547,340.072,547L347.688,547"/><path marker-end="url(#my-svg_flowchart-v2-pointEnd)" style="" class="edge-thickness-normal edge-pattern-solid edge-thickness-normal edge-pattern-solid flowchart-link" id="L_Vaccine_Castle_0" d="M581,547L591.039,547C601.078,547,621.156,547,640.568,547C659.979,547,678.724,547,688.096,547L697.469,547"/><path marker-end="url(#my-svg_flowchart-v2-pointEnd)" style="" class="edge-thickness-normal edge-pattern-solid edge-thickness-normal edge-pattern-solid flowchart-link" id="L_SimulationControls_InvasionSimulator_0" d="M1959.641,42L1969.182,42C1978.724,42,1997.807,42,2016.224,42C2034.641,42,2052.391,42,2061.266,42L2070.141,42"/><path marker-end="url(#my-svg_flowchart-v2-pointEnd)" style="" class="edge-thickness-normal edge-pattern-solid edge-thickness-normal edge-pattern-solid flowchart-link" id="L_InvasionSimulator_Antigen_0" d="M2265.328,30.098L2278.845,28.415C2292.362,26.732,2319.396,23.366,2352.702,36.451C2386.009,49.536,2425.588,79.072,2445.378,93.84L2465.168,108.608"/><path marker-end="url(#my-svg_flowchart-v2-pointEnd)" style="" class="edge-thickness-normal edge-pattern-solid edge-thickness-normal edge-pattern-solid flowchart-link" id="L_InvasionSimulator_Pathogen_0" d="M2265.328,58.23L2278.845,60.525C2292.362,62.82,2319.396,67.41,2356.485,112.787C2393.574,158.164,2440.718,244.327,2464.29,287.409L2487.862,330.491"/><path marker-end="url(#my-svg_flowchart-v2-pointEnd)" style="" class="edge-thickness-normal edge-pattern-solid edge-thickness-normal edge-pattern-solid flowchart-link" id="L_Antigen_Castle_0" d="M2494.533,165L2469.849,231.5C2445.165,298,2395.797,431,2341.664,497.5C2287.531,564,2228.633,564,2173.71,564C2118.786,564,2067.839,564,2016.181,564C1964.523,564,1912.156,564,1854.194,564C1796.232,564,1732.674,564,1665.557,564C1598.44,564,1527.763,564,1462.237,564C1396.711,564,1336.336,564,1277.066,564C1217.797,564,1159.633,564,1100.99,564C1042.346,564,983.224,564,943.86,562.832C904.496,561.665,884.89,559.329,875.087,558.161L865.284,556.994"/><path marker-end="url(#my-svg_flowchart-v2-pointEnd)" style="" class="edge-thickness-normal edge-pattern-solid edge-thickness-normal edge-pattern-solid flowchart-link" id="L_Pathogen_Castle_0" d="M2487.27,388L2463.796,424.667C2440.323,461.333,2393.376,534.667,2340.454,571.333C2287.531,608,2228.633,608,2173.71,608C2118.786,608,2067.839,608,2016.181,608C1964.523,608,1912.156,608,1854.194,608C1796.232,608,1732.674,608,1665.557,608C1598.44,608,1527.763,608,1462.237,608C1396.711,608,1336.336,608,1277.066,608C1217.797,608,1159.633,608,1100.99,608C1042.346,608,983.224,608,941.018,602.595C898.813,597.191,873.524,586.381,860.88,580.977L848.236,575.572"/><path marker-end="url(#my-svg_flowchart-v2-pointEnd)" style="" class="edge-thickness-normal edge-pattern-solid edge-thickness-normal edge-pattern-solid flowchart-link" id="L_Castle_ImmuneSystem_0" d="M793.701,520L815.435,472.333C837.168,424.667,880.635,329.333,912.811,281.667C944.987,234,965.872,234,976.315,234L986.758,234"/><path marker-end="url(#my-svg_flowchart-v2-pointEnd)" style="" class="edge-thickness-normal edge-pattern-solid edge-thickness-normal edge-pattern-solid flowchart-link" id="L_ImmuneSystem_BCell_0" d="M1208.544,207L1219.78,204.167C1231.016,201.333,1253.488,195.667,1285.307,192.833C1317.125,190,1358.289,190,1378.871,190L1399.453,190"/><path marker-end="url(#my-svg_flowchart-v2-pointEnd)" style="" class="edge-thickness-normal edge-pattern-solid edge-thickness-normal edge-pattern-solid flowchart-link" id="L_ImmuneSystem_TCell_0" d="M1179.99,261L1195.985,266.5C1211.98,272,1243.971,283,1280.725,288.5C1317.479,294,1358.997,294,1379.757,294L1400.516,294"/><path marker-end="url(#my-svg_flowchart-v2-pointEnd)" style="" class="edge-thickness-normal edge-pattern-solid edge-thickness-normal edge-pattern-solid flowchart-link" id="L_BCell_PlasmaCell_0" d="M1510.719,184.435L1537.118,181.696C1563.518,178.957,1616.318,173.478,1660.417,170.739C1704.516,168,1739.914,168,1757.613,168L1775.313,168"/><path marker-end="url(#my-svg_flowchart-v2-pointEnd)" style="" class="edge-thickness-normal edge-pattern-solid edge-thickness-normal edge-pattern-solid flowchart-link" id="L_PlasmaCell_Antibody_0" d="M1940.266,168L1953.036,168C1965.807,168,1991.349,168,2019.857,168C2048.365,168,2079.839,168,2095.576,168L2111.313,168"/><path marker-end="url(#my-svg_flowchart-v2-pointEnd)" style="" class="edge-thickness-normal edge-pattern-solid edge-thickness-normal edge-pattern-solid flowchart-link" id="L_Antibody_Antigen_0" d="M2224.156,151.984L2244.535,145.987C2264.914,139.989,2305.672,127.995,2338.907,123.786C2372.143,119.577,2397.856,123.155,2410.713,124.944L2423.569,126.732"/><path marker-end="url(#my-svg_flowchart-v2-pointEnd)" style="" class="edge-thickness-normal edge-pattern-solid edge-thickness-normal edge-pattern-solid flowchart-link" id="L_Antibody_Pathogen_0" d="M2197.634,195L2222.433,219C2247.232,243,2296.831,291,2334.937,316.851C2373.044,342.703,2399.658,346.406,2412.965,348.257L2426.273,350.109"/><path marker-end="url(#my-svg_flowchart-v2-pointEnd)" style="" class="edge-thickness-normal edge-pattern-solid edge-thickness-normal edge-pattern-solid flowchart-link" id="L_BCell_MemoryCell_0" d="M1510.719,197.588L1537.118,201.324C1563.518,205.059,1616.318,212.529,1662.28,223.857C1708.242,235.184,1747.366,250.369,1766.928,257.961L1786.491,265.553"/><path marker-end="url(#my-svg_flowchart-v2-pointEnd)" style="" class="edge-thickness-normal edge-pattern-solid edge-thickness-normal edge-pattern-solid flowchart-link" id="L_TCell_MemoryCell_0" d="M1509.656,294L1536.233,294C1562.81,294,1615.964,294,1658.141,294C1700.318,294,1731.518,294,1747.118,294L1762.719,294"/><path marker-end="url(#my-svg_flowchart-v2-pointEnd)" style="" class="edge-thickness-normal edge-pattern-solid edge-thickness-normal edge-pattern-solid flowchart-link" id="L_MemoryCell_Castle_0" d="M1844.91,321L1815.611,374.167C1786.312,427.333,1727.715,533.667,1663.077,586.833C1598.44,640,1527.763,640,1462.237,640C1396.711,640,1336.336,640,1277.066,640C1217.797,640,1159.633,640,1100.99,640C1042.346,640,983.224,640,937.342,629.364C891.459,618.728,858.817,597.456,842.495,586.82L826.174,576.184"/><path marker-end="url(#my-svg_flowchart-v2-pointEnd)" style="" class="edge-thickness-normal edge-pattern-solid edge-thickness-normal edge-pattern-solid flowchart-link" id="L_Castle_DefenseMetrics_0" d="M807.251,520L826.726,499.667C846.201,479.333,885.151,438.667,914.425,418.333C943.698,398,963.294,398,973.092,398L982.891,398"/><path marker-end="url(#my-svg_flowchart-v2-pointEnd)" style="" class="edge-thickness-normal edge-pattern-solid edge-thickness-normal edge-pattern-solid flowchart-link" id="L_DefenseMetrics_ResultsComparison_0" d="M1216.047,398L1226.033,398C1236.018,398,1255.99,398,1275.294,398C1294.599,398,1313.237,398,1322.556,398L1331.875,398"/><path marker-end="url(#my-svg_flowchart-v2-pointEnd)" style="" class="edge-thickness-normal edge-pattern-solid edge-thickness-normal edge-pattern-solid flowchart-link" id="L_Castle_Population_0" d="M861.313,521.799L871.777,518.499C882.242,515.199,903.172,508.6,932.462,505.3C961.753,502,999.404,502,1018.229,502L1037.055,502"/><path marker-end="url(#my-svg_flowchart-v2-pointEnd)" style="" class="edge-thickness-normal edge-pattern-solid edge-thickness-normal edge-pattern-solid flowchart-link" id="L_Population_HerdImmunity_0" d="M1161.883,502L1180.896,502C1199.909,502,1237.935,502,1266.482,502C1295.029,502,1314.096,502,1323.63,502L1333.164,502"/></g><g class="edgeLabels"><g transform="translate(301.9921875, 547)" class="edgeLabel"><g transform="translate(-24.6953125, -12)" class="label"><foreignObject height="24" width="49.390625"><div style="display: table-cell; white-space: nowrap; line-height: 1.5; max-width: 200px; text-align: center;" class="labelBkg" xmlns="http://www.w3.org/1999/xhtml"><span class="edgeLabel"><p>selects</p></span></div></foreignObject></g></g><g transform="translate(641.234375, 547)" class="edgeLabel"><g transform="translate(-35.234375, -12)" class="label"><foreignObject height="24" width="70.46875"><div style="display: table-cell; white-space: nowrap; line-height: 1.5; max-width: 200px; text-align: center;" class="labelBkg" xmlns="http://www.w3.org/1999/xhtml"><span class="edgeLabel"><p>applies to</p></span></div></foreignObject></g></g><g transform="translate(2016.890625, 42)" class="edgeLabel"><g transform="translate(-28.796875, -12)" class="label"><foreignObject height="24" width="57.59375"><div style="display: table-cell; white-space: nowrap; line-height: 1.5; max-width: 200px; text-align: center;" class="labelBkg" xmlns="http://www.w3.org/1999/xhtml"><span class="edgeLabel"><p>controls</p></span></div></foreignObject></g></g><g transform="translate(2346.4296875, 20)" class="edgeLabel"><g transform="translate(-35.203125, -12)" class="label"><foreignObject height="24" width="70.40625"><div style="display: table-cell; white-space: nowrap; line-height: 1.5; max-width: 200px; text-align: center;" class="labelBkg" xmlns="http://www.w3.org/1999/xhtml"><span class="edgeLabel"><p>generates</p></span></div></foreignObject></g></g><g transform="translate(2346.4296875, 72)" class="edgeLabel"><g transform="translate(-35.203125, -12)" class="label"><foreignObject height="24" width="70.40625"><div style="display: table-cell; white-space: nowrap; line-height: 1.5; max-width: 200px; text-align: center;" class="labelBkg" xmlns="http://www.w3.org/1999/xhtml"><span class="edgeLabel"><p>generates</p></span></div></foreignObject></g></g><g transform="translate(1669.1171875, 564)" class="edgeLabel"><g transform="translate(-25.984375, -12)" class="label"><foreignObject height="24" width="51.96875"><div style="display: table-cell; white-space: nowrap; line-height: 1.5; max-width: 200px; text-align: center;" class="labelBkg" xmlns="http://www.w3.org/1999/xhtml"><span class="edgeLabel"><p>attacks</p></span></div></foreignObject></g></g><g transform="translate(1669.1171875, 608)" class="edgeLabel"><g transform="translate(-25.984375, -12)" class="label"><foreignObject height="24" width="51.96875"><div style="display: table-cell; white-space: nowrap; line-height: 1.5; max-width: 200px; text-align: center;" class="labelBkg" xmlns="http://www.w3.org/1999/xhtml"><span class="edgeLabel"><p>attacks</p></span></div></foreignObject></g></g><g transform="translate(924.1015625, 234)" class="edgeLabel"><g transform="translate(-29.890625, -12)" class="label"><foreignObject height="24" width="59.78125"><div style="display: table-cell; white-space: nowrap; line-height: 1.5; max-width: 200px; text-align: center;" class="labelBkg" xmlns="http://www.w3.org/1999/xhtml"><span class="edgeLabel"><p>contains</p></span></div></foreignObject></g></g><g transform="translate(1275.9609375, 190)" class="edgeLabel"><g transform="translate(-32.515625, -12)" class="label"><foreignObject height="24" width="65.03125"><div style="display: table-cell; white-space: nowrap; line-height: 1.5; max-width: 200px; text-align: center;" class="labelBkg" xmlns="http://www.w3.org/1999/xhtml"><span class="edgeLabel"><p>activates</p></span></div></foreignObject></g></g><g transform="translate(1275.9609375, 294)" class="edgeLabel"><g transform="translate(-32.515625, -12)" class="label"><foreignObject height="24" width="65.03125"><div style="display: table-cell; white-space: nowrap; line-height: 1.5; max-width: 200px; text-align: center;" class="labelBkg" xmlns="http://www.w3.org/1999/xhtml"><span class="edgeLabel"><p>activates</p></span></div></foreignObject></g></g><g transform="translate(1669.1171875, 168)" class="edgeLabel"><g transform="translate(-65.8203125, -12)" class="label"><foreignObject height="24" width="131.640625"><div style="display: table-cell; white-space: nowrap; line-height: 1.5; max-width: 200px; text-align: center;" class="labelBkg" xmlns="http://www.w3.org/1999/xhtml"><span class="edgeLabel"><p>differentiates into</p></span></div></foreignObject></g></g><g transform="translate(2016.890625, 168)" class="edgeLabel"><g transform="translate(-32.25, -12)" class="label"><foreignObject height="24" width="64.5"><div style="display: table-cell; white-space: nowrap; line-height: 1.5; max-width: 200px; text-align: center;" class="labelBkg" xmlns="http://www.w3.org/1999/xhtml"><span class="edgeLabel"><p>produces</p></span></div></foreignObject></g></g><g transform="translate(2346.4296875, 116)" class="edgeLabel"><g transform="translate(-56.1015625, -12)" class="label"><foreignObject height="24" width="112.203125"><div style="display: table-cell; white-space: nowrap; line-height: 1.5; max-width: 200px; text-align: center;" class="labelBkg" xmlns="http://www.w3.org/1999/xhtml"><span class="edgeLabel"><p>defends against</p></span></div></foreignObject></g></g><g transform="translate(2346.4296875, 339)" class="edgeLabel"><g transform="translate(-56.1015625, -12)" class="label"><foreignObject height="24" width="112.203125"><div style="display: table-cell; white-space: nowrap; line-height: 1.5; max-width: 200px; text-align: center;" class="labelBkg" xmlns="http://www.w3.org/1999/xhtml"><span class="edgeLabel"><p>defends against</p></span></div></foreignObject></g></g><g transform="translate(1669.1171875, 220)" class="edgeLabel"><g transform="translate(-32.25, -12)" class="label"><foreignObject height="24" width="64.5"><div style="display: table-cell; white-space: nowrap; line-height: 1.5; max-width: 200px; text-align: center;" class="labelBkg" xmlns="http://www.w3.org/1999/xhtml"><span class="edgeLabel"><p>produces</p></span></div></foreignObject></g></g><g transform="translate(1669.1171875, 294)" class="edgeLabel"><g transform="translate(-32.25, -12)" class="label"><foreignObject height="24" width="64.5"><div style="display: table-cell; white-space: nowrap; line-height: 1.5; max-width: 200px; text-align: center;" class="labelBkg" xmlns="http://www.w3.org/1999/xhtml"><span class="edgeLabel"><p>produces</p></span></div></foreignObject></g></g><g transform="translate(1275.9609375, 640)" class="edgeLabel"><g transform="translate(-33.2421875, -12)" class="label"><foreignObject height="24" width="66.484375"><div style="display: table-cell; white-space: nowrap; line-height: 1.5; max-width: 200px; text-align: center;" class="labelBkg" xmlns="http://www.w3.org/1999/xhtml"><span class="edgeLabel"><p>enhances</p></span></div></foreignObject></g></g><g transform="translate(924.1015625, 398)" class="edgeLabel"><g transform="translate(-28.265625, -12)" class="label"><foreignObject height="24" width="56.53125"><div style="display: table-cell; white-space: nowrap; line-height: 1.5; max-width: 200px; text-align: center;" class="labelBkg" xmlns="http://www.w3.org/1999/xhtml"><span class="edgeLabel"><p>updates</p></span></div></foreignObject></g></g><g transform="translate(1275.9609375, 398)" class="edgeLabel"><g transform="translate(-34.9140625, -12)" class="label"><foreignObject height="24" width="69.828125"><div style="display: table-cell; white-space: nowrap; line-height: 1.5; max-width: 200px; text-align: center;" class="labelBkg" xmlns="http://www.w3.org/1999/xhtml"><span class="edgeLabel"><p>populates</p></span></div></foreignObject></g></g><g transform="translate(924.1015625, 502)" class="edgeLabel"><g transform="translate(-37.7890625, -12)" class="label"><foreignObject height="24" width="75.578125"><div style="display: table-cell; white-space: nowrap; line-height: 1.5; max-width: 200px; text-align: center;" class="labelBkg" xmlns="http://www.w3.org/1999/xhtml"><span class="edgeLabel"><p>represents</p></span></div></foreignObject></g></g><g transform="translate(1275.9609375, 502)" class="edgeLabel"><g transform="translate(-30.703125, -12)" class="label"><foreignObject height="24" width="61.40625"><div style="display: table-cell; white-space: nowrap; line-height: 1.5; max-width: 200px; text-align: center;" class="labelBkg" xmlns="http://www.w3.org/1999/xhtml"><span class="edgeLabel"><p>achieves</p></span></div></foreignObject></g></g></g><g class="nodes"><g transform="translate(781.390625, 547)" id="flowchart-Castle-0" class="node default"><rect height="54" width="159.84375" y="-27" x="-79.921875" style="" class="basic label-container"/><g transform="translate(-49.921875, -12)" style="" class="label"><rect/><foreignObject height="24" width="99.84375"><div style="display: table-cell; white-space: nowrap; line-height: 1.5; max-width: 200px; text-align: center;" xmlns="http://www.w3.org/1999/xhtml"><span class="nodeLabel"><p>Castle Display</p></span></div></foreignObject></g></g><g transform="translate(130.1484375, 547)" id="flowchart-TrainingSelector-1" class="node default"><rect height="54" width="244.296875" y="-27" x="-122.1484375" style="" class="basic label-container"/><g transform="translate(-92.1484375, -12)" style="" class="label"><rect/><foreignObject height="24" width="184.296875"><div style="display: table-cell; white-space: nowrap; line-height: 1.5; max-width: 200px; text-align: center;" xmlns="http://www.w3.org/1999/xhtml"><span class="nodeLabel"><p>Training Program Selector</p></span></div></foreignObject></g></g><g transform="translate(1859.7890625, 42)" id="flowchart-SimulationControls-2" class="node default"><rect height="54" width="199.703125" y="-27" x="-99.8515625" style="" class="basic label-container"/><g transform="translate(-69.8515625, -12)" style="" class="label"><rect/><foreignObject height="24" width="139.703125"><div style="display: table-cell; white-space: nowrap; line-height: 1.5; max-width: 200px; text-align: center;" xmlns="http://www.w3.org/1999/xhtml"><span class="nodeLabel"><p>Simulation Controls</p></span></div></foreignObject></g></g><g transform="translate(1101.46875, 398)" id="flowchart-DefenseMetrics-3" class="node default"><rect height="54" width="229.15625" y="-27" x="-114.578125" style="" class="basic label-container"/><g transform="translate(-84.578125, -12)" style="" class="label"><rect/><foreignObject height="24" width="169.15625"><div style="display: table-cell; white-space: nowrap; line-height: 1.5; max-width: 200px; text-align: center;" xmlns="http://www.w3.org/1999/xhtml"><span class="nodeLabel"><p>Defense Metrics Display</p></span></div></foreignObject></g></g><g transform="translate(2169.734375, 42)" id="flowchart-InvasionSimulator-4" class="node default"><rect height="54" width="191.1875" y="-27" x="-95.59375" style="" class="basic label-container"/><g transform="translate(-65.59375, -12)" style="" class="label"><rect/><foreignObject height="24" width="131.1875"><div style="display: table-cell; white-space: nowrap; line-height: 1.5; max-width: 200px; text-align: center;" xmlns="http://www.w3.org/1999/xhtml"><span class="nodeLabel"><p>Invasion Simulator</p></span></div></foreignObject></g></g><g transform="translate(1457.0859375, 398)" id="flowchart-ResultsComparison-5" class="node default"><rect height="54" width="242.421875" y="-27" x="-121.2109375" style="" class="basic label-container"/><g transform="translate(-91.2109375, -12)" style="" class="label"><rect/><foreignObject height="24" width="182.421875"><div style="display: table-cell; white-space: nowrap; line-height: 1.5; max-width: 200px; text-align: center;" xmlns="http://www.w3.org/1999/xhtml"><span class="nodeLabel"><p>Results Comparison Chart</p></span></div></foreignObject></g></g><g transform="translate(466.34375, 547)" id="flowchart-Vaccine-6" class="node default"><rect height="54" width="229.3125" y="-27" x="-114.65625" style="" class="basic label-container"/><g transform="translate(-84.65625, -12)" style="" class="label"><rect/><foreignObject height="24" width="169.3125"><div style="display: table-cell; white-space: nowrap; line-height: 1.5; max-width: 200px; text-align: center;" xmlns="http://www.w3.org/1999/xhtml"><span class="nodeLabel"><p>Castle Training Program</p></span></div></foreignObject></g></g><g transform="translate(2504.5546875, 138)" id="flowchart-Antigen-7" class="node default"><rect height="54" width="154.046875" y="-27" x="-77.0234375" style="" class="basic label-container"/><g transform="translate(-47.0234375, -12)" style="" class="label"><rect/><foreignObject height="24" width="94.046875"><div style="display: table-cell; white-space: nowrap; line-height: 1.5; max-width: 200px; text-align: center;" xmlns="http://www.w3.org/1999/xhtml"><span class="nodeLabel"><p>Mock Invader</p></span></div></foreignObject></g></g><g transform="translate(1101.46875, 234)" id="flowchart-ImmuneSystem-8" class="node default"><rect height="54" width="221.421875" y="-27" x="-110.7109375" style="" class="basic label-container"/><g transform="translate(-80.7109375, -12)" style="" class="label"><rect/><foreignObject height="24" width="161.421875"><div style="display: table-cell; white-space: nowrap; line-height: 1.5; max-width: 200px; text-align: center;" xmlns="http://www.w3.org/1999/xhtml"><span class="nodeLabel"><p>Castle Defense System</p></span></div></foreignObject></g></g><g transform="translate(1457.0859375, 190)" id="flowchart-BCell-9" class="node default"><rect height="54" width="107.265625" y="-27" x="-53.6328125" style="" class="basic label-container"/><g transform="translate(-23.6328125, -12)" style="" class="label"><rect/><foreignObject height="24" width="47.265625"><div style="display: table-cell; white-space: nowrap; line-height: 1.5; max-width: 200px; text-align: center;" xmlns="http://www.w3.org/1999/xhtml"><span class="nodeLabel"><p>Archer</p></span></div></foreignObject></g></g><g transform="translate(1457.0859375, 294)" id="flowchart-TCell-10" class="node default"><rect height="54" width="105.140625" y="-27" x="-52.5703125" style="" class="basic label-container"/><g transform="translate(-22.5703125, -12)" style="" class="label"><rect/><foreignObject height="24" width="45.140625"><div style="display: table-cell; white-space: nowrap; line-height: 1.5; max-width: 200px; text-align: center;" xmlns="http://www.w3.org/1999/xhtml"><span class="nodeLabel"><p>Knight</p></span></div></foreignObject></g></g><g transform="translate(1859.7890625, 168)" id="flowchart-PlasmaCell-11" class="node default"><rect height="54" width="160.953125" y="-27" x="-80.4765625" style="" class="basic label-container"/><g transform="translate(-50.4765625, -12)" style="" class="label"><rect/><foreignObject height="24" width="100.953125"><div style="display: table-cell; white-space: nowrap; line-height: 1.5; max-width: 200px; text-align: center;" xmlns="http://www.w3.org/1999/xhtml"><span class="nodeLabel"><p>Arrow Factory</p></span></div></foreignObject></g></g><g transform="translate(2169.734375, 168)" id="flowchart-Antibody-12" class="node default"><rect height="54" width="108.84375" y="-27" x="-54.421875" style="" class="basic label-container"/><g transform="translate(-24.421875, -12)" style="" class="label"><rect/><foreignObject height="24" width="48.84375"><div style="display: table-cell; white-space: nowrap; line-height: 1.5; max-width: 200px; text-align: center;" xmlns="http://www.w3.org/1999/xhtml"><span class="nodeLabel"><p>Arrows</p></span></div></foreignObject></g></g><g transform="translate(1859.7890625, 294)" id="flowchart-MemoryCell-13" class="node default"><rect height="54" width="186.140625" y="-27" x="-93.0703125" style="" class="basic label-container"/><g transform="translate(-63.0703125, -12)" style="" class="label"><rect/><foreignObject height="24" width="126.140625"><div style="display: table-cell; white-space: nowrap; line-height: 1.5; max-width: 200px; text-align: center;" xmlns="http://www.w3.org/1999/xhtml"><span class="nodeLabel"><p>Veteran Defender</p></span></div></foreignObject></g></g><g transform="translate(2504.5546875, 361)" id="flowchart-Pathogen-14" class="node default"><rect height="54" width="148.640625" y="-27" x="-74.3203125" style="" class="basic label-container"/><g transform="translate(-44.3203125, -12)" style="" class="label"><rect/><foreignObject height="24" width="88.640625"><div style="display: table-cell; white-space: nowrap; line-height: 1.5; max-width: 200px; text-align: center;" xmlns="http://www.w3.org/1999/xhtml"><span class="nodeLabel"><p>Real Invader</p></span></div></foreignObject></g></g><g transform="translate(1101.46875, 502)" id="flowchart-Population-15" class="node default"><rect height="54" width="120.828125" y="-27" x="-60.4140625" style="" class="basic label-container"/><g transform="translate(-30.4140625, -12)" style="" class="label"><rect/><foreignObject height="24" width="60.828125"><div style="display: table-cell; white-space: nowrap; line-height: 1.5; max-width: 200px; text-align: center;" xmlns="http://www.w3.org/1999/xhtml"><span class="nodeLabel"><p>Kingdom</p></span></div></foreignObject></g></g><g transform="translate(1457.0859375, 502)" id="flowchart-HerdImmunity-16" class="node default"><rect height="54" width="239.84375" y="-27" x="-119.921875" style="" class="basic label-container"/><g transform="translate(-89.921875, -12)" style="" class="label"><rect/><foreignObject height="24" width="179.84375"><div style="display: table-cell; white-space: nowrap; line-height: 1.5; max-width: 200px; text-align: center;" xmlns="http://www.w3.org/1999/xhtml"><span class="nodeLabel"><p>Kingdom-wide Protection</p></span></div></foreignObject></g></g></g></g></g></svg>