<svg aria-roledescription="flowchart-v2" role="graphics-document document" viewBox="0 0 2319.171875 971" style="max-width: 2319.17px; background-color: white;" class="flowchart" xmlns:xlink="http://www.w3.org/1999/xlink" xmlns="http://www.w3.org/2000/svg" width="100%" id="my-svg"><style>#my-svg{font-family:"trebuchet ms",verdana,arial,sans-serif;font-size:16px;fill:#333;}@keyframes edge-animation-frame{from{stroke-dashoffset:0;}}@keyframes dash{to{stroke-dashoffset:0;}}#my-svg .edge-animation-slow{stroke-dasharray:9,5!important;stroke-dashoffset:900;animation:dash 50s linear infinite;stroke-linecap:round;}#my-svg .edge-animation-fast{stroke-dasharray:9,5!important;stroke-dashoffset:900;animation:dash 20s linear infinite;stroke-linecap:round;}#my-svg .error-icon{fill:#552222;}#my-svg .error-text{fill:#552222;stroke:#552222;}#my-svg .edge-thickness-normal{stroke-width:1px;}#my-svg .edge-thickness-thick{stroke-width:3.5px;}#my-svg .edge-pattern-solid{stroke-dasharray:0;}#my-svg .edge-thickness-invisible{stroke-width:0;fill:none;}#my-svg .edge-pattern-dashed{stroke-dasharray:3;}#my-svg .edge-pattern-dotted{stroke-dasharray:2;}#my-svg .marker{fill:#333333;stroke:#333333;}#my-svg .marker.cross{stroke:#333333;}#my-svg svg{font-family:"trebuchet ms",verdana,arial,sans-serif;font-size:16px;}#my-svg p{margin:0;}#my-svg .label{font-family:"trebuchet ms",verdana,arial,sans-serif;color:#333;}#my-svg .cluster-label text{fill:#333;}#my-svg .cluster-label span{color:#333;}#my-svg .cluster-label span p{background-color:transparent;}#my-svg .label text,#my-svg span{fill:#333;color:#333;}#my-svg .node rect,#my-svg .node circle,#my-svg .node ellipse,#my-svg .node polygon,#my-svg .node path{fill:#ECECFF;stroke:#9370DB;stroke-width:1px;}#my-svg .rough-node .label text,#my-svg .node .label text,#my-svg .image-shape .label,#my-svg .icon-shape .label{text-anchor:middle;}#my-svg .node .katex path{fill:#000;stroke:#000;stroke-width:1px;}#my-svg .rough-node .label,#my-svg .node .label,#my-svg .image-shape .label,#my-svg .icon-shape .label{text-align:center;}#my-svg .node.clickable{cursor:pointer;}#my-svg .root .anchor path{fill:#333333!important;stroke-width:0;stroke:#333333;}#my-svg .arrowheadPath{fill:#333333;}#my-svg .edgePath .path{stroke:#333333;stroke-width:2.0px;}#my-svg .flowchart-link{stroke:#333333;fill:none;}#my-svg .edgeLabel{background-color:rgba(232,232,232, 0.8);text-align:center;}#my-svg .edgeLabel p{background-color:rgba(232,232,232, 0.8);}#my-svg .edgeLabel rect{opacity:0.5;background-color:rgba(232,232,232, 0.8);fill:rgba(232,232,232, 0.8);}#my-svg .labelBkg{background-color:rgba(232, 232, 232, 0.5);}#my-svg .cluster rect{fill:#ffffde;stroke:#aaaa33;stroke-width:1px;}#my-svg .cluster text{fill:#333;}#my-svg .cluster span{color:#333;}#my-svg div.mermaidTooltip{position:absolute;text-align:center;max-width:200px;padding:2px;font-family:"trebuchet ms",verdana,arial,sans-serif;font-size:12px;background:hsl(80, 100%, 96.2745098039%);border:1px solid #aaaa33;border-radius:2px;pointer-events:none;z-index:100;}#my-svg .flowchartTitleText{text-anchor:middle;font-size:18px;fill:#333;}#my-svg rect.text{fill:none;stroke-width:0;}#my-svg .icon-shape,#my-svg .image-shape{background-color:rgba(232,232,232, 0.8);text-align:center;}#my-svg .icon-shape p,#my-svg .image-shape p{background-color:rgba(232,232,232, 0.8);padding:2px;}#my-svg .icon-shape rect,#my-svg .image-shape rect{opacity:0.5;background-color:rgba(232,232,232, 0.8);fill:rgba(232,232,232, 0.8);}#my-svg .label-icon{display:inline-block;height:1em;overflow:visible;vertical-align:-0.125em;}#my-svg .node .label-icon path{fill:currentColor;stroke:revert;stroke-width:revert;}#my-svg :root{--mermaid-font-family:"trebuchet ms",verdana,arial,sans-serif;}</style><g><marker orient="auto" markerHeight="8" markerWidth="8" markerUnits="userSpaceOnUse" refY="5" refX="5" viewBox="0 0 10 10" class="marker flowchart-v2" id="my-svg_flowchart-v2-pointEnd"><path style="stroke-width: 1; stroke-dasharray: 1, 0;" class="arrowMarkerPath" d="M 0 0 L 10 5 L 0 10 z"/></marker><marker orient="auto" markerHeight="8" markerWidth="8" markerUnits="userSpaceOnUse" refY="5" refX="4.5" viewBox="0 0 10 10" class="marker flowchart-v2" id="my-svg_flowchart-v2-pointStart"><path style="stroke-width: 1; stroke-dasharray: 1, 0;" class="arrowMarkerPath" d="M 0 5 L 10 10 L 10 0 z"/></marker><marker orient="auto" markerHeight="11" markerWidth="11" markerUnits="userSpaceOnUse" refY="5" refX="11" viewBox="0 0 10 10" class="marker flowchart-v2" id="my-svg_flowchart-v2-circleEnd"><circle style="stroke-width: 1; stroke-dasharray: 1, 0;" class="arrowMarkerPath" r="5" cy="5" cx="5"/></marker><marker orient="auto" markerHeight="11" markerWidth="11" markerUnits="userSpaceOnUse" refY="5" refX="-1" viewBox="0 0 10 10" class="marker flowchart-v2" id="my-svg_flowchart-v2-circleStart"><circle style="stroke-width: 1; stroke-dasharray: 1, 0;" class="arrowMarkerPath" r="5" cy="5" cx="5"/></marker><marker orient="auto" markerHeight="11" markerWidth="11" markerUnits="userSpaceOnUse" refY="5.2" refX="12" viewBox="0 0 11 11" class="marker cross flowchart-v2" id="my-svg_flowchart-v2-crossEnd"><path style="stroke-width: 2; stroke-dasharray: 1, 0;" class="arrowMarkerPath" d="M 1,1 l 9,9 M 10,1 l -9,9"/></marker><marker orient="auto" markerHeight="11" markerWidth="11" markerUnits="userSpaceOnUse" refY="5.2" refX="-1" viewBox="0 0 11 11" class="marker cross flowchart-v2" id="my-svg_flowchart-v2-crossStart"><path style="stroke-width: 2; stroke-dasharray: 1, 0;" class="arrowMarkerPath" d="M 1,1 l 9,9 M 10,1 l -9,9"/></marker><g class="root"><g class="clusters"/><g class="edgePaths"><path marker-end="url(#my-svg_flowchart-v2-pointEnd)" style="" class="edge-thickness-normal edge-pattern-solid edge-thickness-normal edge-pattern-solid flowchart-link" id="L_Device_Network_0" d="M872.204,173L906.206,201.167C940.209,229.333,1008.214,285.667,1068.432,336.069C1128.651,386.471,1181.083,430.942,1207.299,453.177L1233.514,475.413"/><path marker-end="url(#my-svg_flowchart-v2-pointEnd)" style="" class="edge-thickness-normal edge-pattern-solid edge-thickness-normal edge-pattern-solid flowchart-link" id="L_Network_OSIModel_0" d="M1352.741,478L1365.757,473.833C1378.773,469.667,1404.804,461.333,1429.965,457.167C1455.125,453,1479.414,453,1491.559,453L1503.703,453"/><path marker-end="url(#my-svg_flowchart-v2-pointEnd)" style="" class="edge-thickness-normal edge-pattern-solid edge-thickness-normal edge-pattern-solid flowchart-link" id="L_Network_TCPIPModel_0" d="M1352.741,532L1365.757,536.167C1378.773,540.333,1404.804,548.667,1433.254,552.833C1461.703,557,1492.57,557,1508.004,557L1523.438,557"/><path marker-end="url(#my-svg_flowchart-v2-pointEnd)" style="" class="edge-thickness-normal edge-pattern-solid edge-thickness-normal edge-pattern-solid flowchart-link" id="L_Device_PhysicalMedia_0" d="M905.773,146L934.181,146C962.589,146,1019.404,146,1069.476,149.946C1119.548,153.891,1162.876,161.782,1184.541,165.728L1206.205,169.673"/><path marker-end="url(#my-svg_flowchart-v2-pointEnd)" style="" class="edge-thickness-normal edge-pattern-solid edge-thickness-normal edge-pattern-solid flowchart-link" id="L_Network_Packet_0" d="M1303.206,478L1324.478,461.5C1345.75,445,1388.293,412,1440.873,395.5C1493.453,379,1556.07,379,1622,379C1687.93,379,1757.172,379,1815.584,434.72C1873.996,490.44,1921.577,601.881,1945.368,657.601L1969.159,713.321"/><path marker-end="url(#my-svg_flowchart-v2-pointEnd)" style="" class="edge-thickness-normal edge-pattern-solid edge-thickness-normal edge-pattern-solid flowchart-link" id="L_Device_IPAddress_0" d="M905.773,132.857L934.181,127.214C962.589,121.571,1019.404,110.286,1079.841,104.643C1140.279,99,1204.339,99,1263.441,99C1322.544,99,1376.69,99,1435.072,99C1493.453,99,1556.07,99,1622,99C1687.93,99,1757.172,99,1817.767,99C1878.362,99,1930.31,99,1975.283,99C2020.255,99,2058.253,99,2097.767,152.378C2137.281,205.755,2178.313,312.511,2198.828,365.889L2219.344,419.266"/><path marker-end="url(#my-svg_flowchart-v2-pointEnd)" style="" class="edge-thickness-normal edge-pattern-solid edge-thickness-normal edge-pattern-solid flowchart-link" id="L_Network_RoutingProtocol_0" d="M1296.513,532L1318.9,553.5C1341.287,575,1386.061,618,1425.557,639.5C1465.052,661,1499.268,661,1516.376,661L1533.484,661"/><path marker-end="url(#my-svg_flowchart-v2-pointEnd)" style="" class="edge-thickness-normal edge-pattern-solid edge-thickness-normal edge-pattern-solid flowchart-link" id="L_Network_NetworkType_0" d="M1284.118,478L1308.571,436C1333.024,394,1381.93,310,1424.633,274.606C1467.337,239.213,1503.837,252.426,1522.088,259.032L1540.338,265.639"/><path marker-end="url(#my-svg_flowchart-v2-pointEnd)" style="" class="edge-thickness-normal edge-pattern-solid edge-thickness-normal edge-pattern-solid flowchart-link" id="L_Network_TransmissionProtocol_0" d="M1285.267,532L1309.528,570.833C1333.79,609.667,1382.313,687.333,1419.198,726.167C1456.083,765,1481.331,765,1493.954,765L1506.578,765"/><path marker-end="url(#my-svg_flowchart-v2-pointEnd)" style="" class="edge-thickness-normal edge-pattern-solid edge-thickness-normal edge-pattern-solid flowchart-link" id="L_Packet_IPAddress_0" d="M2041.359,744L2050.508,744C2059.656,744,2077.953,744,2107.243,700.106C2136.533,656.212,2176.816,568.424,2196.957,524.53L2217.099,480.636"/><path marker-end="url(#my-svg_flowchart-v2-pointEnd)" style="" class="edge-thickness-normal edge-pattern-solid edge-thickness-normal edge-pattern-solid flowchart-link" id="L_RoutingProtocol_Packet_0" d="M1699.891,661L1720.978,661C1742.065,661,1784.24,661,1822.263,670.02C1860.286,679.04,1894.159,697.08,1911.095,706.1L1928.031,715.12"/><path marker-end="url(#my-svg_flowchart-v2-pointEnd)" style="" class="edge-thickness-normal edge-pattern-solid edge-thickness-normal edge-pattern-solid flowchart-link" id="L_TransmissionProtocol_Packet_0" d="M1726.797,765L1743.4,765C1760.003,765,1793.208,765,1825.274,762.916C1857.34,760.833,1888.266,756.665,1903.729,754.582L1919.192,752.498"/><path marker-end="url(#my-svg_flowchart-v2-pointEnd)" style="" class="edge-thickness-normal edge-pattern-solid edge-thickness-normal edge-pattern-solid flowchart-link" id="L_LayoutSelector_NetworkType_0" d="M163.504,337L175.102,332.5C186.701,328,209.897,319,252.04,314.5C294.182,310,355.271,310,421.086,310C486.901,310,557.443,310,627.984,310C698.526,310,769.068,310,843.773,310C918.479,310,997.349,310,1068.814,310C1140.279,310,1204.339,310,1263.441,310C1322.544,310,1376.69,310,1421.146,308.519C1465.601,307.039,1500.366,304.078,1517.749,302.597L1535.132,301.117"/><path marker-end="url(#my-svg_flowchart-v2-pointEnd)" style="" class="edge-thickness-normal edge-pattern-solid edge-thickness-normal edge-pattern-solid flowchart-link" id="L_LayoutSelector_SimulationVisual_0" d="M118.966,391L137.988,411.5C157.009,432,195.051,473,223.337,493.5C251.622,514,270.151,514,279.415,514L288.68,514"/><path marker-end="url(#my-svg_flowchart-v2-pointEnd)" style="" class="edge-thickness-normal edge-pattern-solid edge-thickness-normal edge-pattern-solid flowchart-link" id="L_SendMessageButton_Packet_0" d="M521.227,808.335L539.02,811.446C556.813,814.556,592.398,820.778,645.462,823.889C698.526,827,769.068,827,843.773,827C918.479,827,997.349,827,1068.814,827C1140.279,827,1204.339,827,1263.441,827C1322.544,827,1376.69,827,1435.072,827C1493.453,827,1556.07,827,1622,827C1687.93,827,1757.172,827,1808.729,817.98C1860.286,808.96,1894.159,790.92,1911.095,781.9L1928.031,772.88"/><path marker-end="url(#my-svg_flowchart-v2-pointEnd)" style="" class="edge-thickness-normal edge-pattern-solid edge-thickness-normal edge-pattern-solid flowchart-link" id="L_MessageInput_Packet_0" d="M1698.797,889L1720.066,889C1741.336,889,1783.875,889,1825.794,869.787C1867.713,850.575,1909.011,812.15,1929.661,792.937L1950.31,773.725"/><path marker-end="url(#my-svg_flowchart-v2-pointEnd)" style="" class="edge-thickness-normal edge-pattern-solid edge-thickness-normal edge-pattern-solid flowchart-link" id="L_SourceClassroom_Device_0" d="M540.758,35L555.296,35C569.833,35,598.909,35,639.548,48.69C680.186,62.381,732.389,89.761,758.49,103.452L784.591,117.142"/><path marker-end="url(#my-svg_flowchart-v2-pointEnd)" style="" class="edge-thickness-normal edge-pattern-solid edge-thickness-normal edge-pattern-solid flowchart-link" id="L_DestinationClassroom_Device_0" d="M546.359,151L559.964,151C573.568,151,600.776,151,637.957,150.443C675.138,149.886,722.292,148.772,745.869,148.215L769.446,147.658"/><path marker-end="url(#my-svg_flowchart-v2-pointEnd)" style="" class="edge-thickness-normal edge-pattern-solid edge-thickness-normal edge-pattern-solid flowchart-link" id="L_SimulationVisual_Network_0" d="M540.039,488.87L554.697,485.891C569.354,482.913,598.669,476.957,648.598,473.978C698.526,471,769.068,471,843.773,471C918.479,471,997.349,471,1053.896,474.027C1110.442,477.055,1144.666,483.109,1161.778,486.137L1178.889,489.164"/><path marker-end="url(#my-svg_flowchart-v2-pointEnd)" style="" class="edge-thickness-normal edge-pattern-solid edge-thickness-normal edge-pattern-solid flowchart-link" id="L_SimulationVisual_Device_0" d="M434.791,487L466.99,439.833C499.189,392.667,563.587,298.333,619.386,244.698C675.185,191.064,722.387,178.127,745.987,171.659L769.588,165.191"/><path marker-end="url(#my-svg_flowchart-v2-pointEnd)" style="" class="edge-thickness-normal edge-pattern-solid edge-thickness-normal edge-pattern-solid flowchart-link" id="L_SimulationVisual_Packet_0" d="M429.435,541L462.526,609.333C495.618,677.667,561.801,814.333,630.164,882.667C698.526,951,769.068,951,843.773,951C918.479,951,997.349,951,1068.814,951C1140.279,951,1204.339,951,1263.441,951C1322.544,951,1376.69,951,1435.072,951C1493.453,951,1556.07,951,1622,951C1687.93,951,1757.172,951,1813.978,921.533C1870.784,892.065,1915.154,833.13,1937.339,803.663L1959.525,774.196"/><path marker-end="url(#my-svg_flowchart-v2-pointEnd)" style="" class="edge-thickness-normal edge-pattern-solid edge-thickness-normal edge-pattern-solid flowchart-link" id="L_SimulationVisual_PhysicalMedia_0" d="M438.592,487L470.158,448.667C501.723,410.333,564.854,333.667,631.69,295.333C698.526,257,769.068,257,843.773,257C918.479,257,997.349,257,1058.484,248.418C1119.619,239.837,1163.02,222.673,1184.721,214.092L1206.421,205.51"/><path marker-end="url(#my-svg_flowchart-v2-pointEnd)" style="" class="edge-thickness-normal edge-pattern-solid edge-thickness-normal edge-pattern-solid flowchart-link" id="L_PerformanceMetrics_Network_0" d="M969.609,701L987.378,701C1005.146,701,1040.682,701,1085.601,673.309C1130.521,645.619,1184.822,590.237,1211.973,562.547L1239.124,534.856"/><path marker-end="url(#my-svg_flowchart-v2-pointEnd)" style="" class="edge-thickness-normal edge-pattern-solid edge-thickness-normal edge-pattern-solid flowchart-link" id="L_SendMessageButton_PerformanceMetrics_0" d="M480.56,763L505.131,752.667C529.702,742.333,578.843,721.667,616.351,711.333C653.859,701,679.734,701,692.672,701L705.609,701"/></g><g class="edgeLabels"><g transform="translate(1076.21875, 342)" class="edgeLabel"><g transform="translate(-81.609375, -12)" class="label"><foreignObject height="24" width="163.21875"><div style="display: table-cell; white-space: nowrap; line-height: 1.5; max-width: 200px; text-align: center;" class="labelBkg" xmlns="http://www.w3.org/1999/xhtml"><span class="edgeLabel"><p>communicates through</p></span></div></foreignObject></g></g><g transform="translate(1430.8359375, 453)" class="edgeLabel"><g transform="translate(-42.2734375, -12)" class="label"><foreignObject height="24" width="84.546875"><div style="display: table-cell; white-space: nowrap; line-height: 1.5; max-width: 200px; text-align: center;" class="labelBkg" xmlns="http://www.w3.org/1999/xhtml"><span class="edgeLabel"><p>operates on</p></span></div></foreignObject></g></g><g transform="translate(1430.8359375, 557)" class="edgeLabel"><g transform="translate(-41.890625, -12)" class="label"><foreignObject height="24" width="83.78125"><div style="display: table-cell; white-space: nowrap; line-height: 1.5; max-width: 200px; text-align: center;" class="labelBkg" xmlns="http://www.w3.org/1999/xhtml"><span class="edgeLabel"><p>implements</p></span></div></foreignObject></g></g><g transform="translate(1076.21875, 146)" class="edgeLabel"><g transform="translate(-44.546875, -12)" class="label"><foreignObject height="24" width="89.09375"><div style="display: table-cell; white-space: nowrap; line-height: 1.5; max-width: 200px; text-align: center;" class="labelBkg" xmlns="http://www.w3.org/1999/xhtml"><span class="edgeLabel"><p>connects via</p></span></div></foreignObject></g></g><g transform="translate(1618.6875, 379)" class="edgeLabel"><g transform="translate(-33.4296875, -12)" class="label"><foreignObject height="24" width="66.859375"><div style="display: table-cell; white-space: nowrap; line-height: 1.5; max-width: 200px; text-align: center;" class="labelBkg" xmlns="http://www.w3.org/1999/xhtml"><span class="edgeLabel"><p>transmits</p></span></div></foreignObject></g></g><g transform="translate(1618.6875, 99)" class="edgeLabel"><g transform="translate(-45.796875, -12)" class="label"><foreignObject height="24" width="91.59375"><div style="display: table-cell; white-space: nowrap; line-height: 1.5; max-width: 200px; text-align: center;" class="labelBkg" xmlns="http://www.w3.org/1999/xhtml"><span class="edgeLabel"><p>identified by</p></span></div></foreignObject></g></g><g transform="translate(1430.8359375, 661)" class="edgeLabel"><g transform="translate(-15.2109375, -12)" class="label"><foreignObject height="24" width="30.421875"><div style="display: table-cell; white-space: nowrap; line-height: 1.5; max-width: 200px; text-align: center;" class="labelBkg" xmlns="http://www.w3.org/1999/xhtml"><span class="edgeLabel"><p>uses</p></span></div></foreignObject></g></g><g transform="translate(1430.8359375, 226)" class="edgeLabel"><g transform="translate(-51.8671875, -12)" class="label"><foreignObject height="24" width="103.734375"><div style="display: table-cell; white-space: nowrap; line-height: 1.5; max-width: 200px; text-align: center;" class="labelBkg" xmlns="http://www.w3.org/1999/xhtml"><span class="edgeLabel"><p>categorized as</p></span></div></foreignObject></g></g><g transform="translate(1430.8359375, 765)" class="edgeLabel"><g transform="translate(-29.296875, -12)" class="label"><foreignObject height="24" width="58.59375"><div style="display: table-cell; white-space: nowrap; line-height: 1.5; max-width: 200px; text-align: center;" class="labelBkg" xmlns="http://www.w3.org/1999/xhtml"><span class="edgeLabel"><p>employs</p></span></div></foreignObject></g></g><g transform="translate(2096.25, 744)" class="edgeLabel"><g transform="translate(-29.890625, -12)" class="label"><foreignObject height="24" width="59.78125"><div style="display: table-cell; white-space: nowrap; line-height: 1.5; max-width: 200px; text-align: center;" class="labelBkg" xmlns="http://www.w3.org/1999/xhtml"><span class="edgeLabel"><p>contains</p></span></div></foreignObject></g></g><g transform="translate(1826.4140625, 661)" class="edgeLabel"><g transform="translate(-71.7421875, -12)" class="label"><foreignObject height="24" width="143.484375"><div style="display: table-cell; white-space: nowrap; line-height: 1.5; max-width: 200px; text-align: center;" class="labelBkg" xmlns="http://www.w3.org/1999/xhtml"><span class="edgeLabel"><p>determines path for</p></span></div></foreignObject></g></g><g transform="translate(1826.4140625, 765)" class="edgeLabel"><g transform="translate(-31.0390625, -12)" class="label"><foreignObject height="24" width="62.078125"><div style="display: table-cell; white-space: nowrap; line-height: 1.5; max-width: 200px; text-align: center;" class="labelBkg" xmlns="http://www.w3.org/1999/xhtml"><span class="edgeLabel"><p>manages</p></span></div></foreignObject></g></g><g transform="translate(839.609375, 310)" class="edgeLabel"><g transform="translate(-28.5234375, -12)" class="label"><foreignObject height="24" width="57.046875"><div style="display: table-cell; white-space: nowrap; line-height: 1.5; max-width: 200px; text-align: center;" class="labelBkg" xmlns="http://www.w3.org/1999/xhtml"><span class="edgeLabel"><p>changes</p></span></div></foreignObject></g></g><g transform="translate(233.09375, 514)" class="edgeLabel"><g transform="translate(-28.265625, -12)" class="label"><foreignObject height="24" width="56.53125"><div style="display: table-cell; white-space: nowrap; line-height: 1.5; max-width: 200px; text-align: center;" class="labelBkg" xmlns="http://www.w3.org/1999/xhtml"><span class="edgeLabel"><p>updates</p></span></div></foreignObject></g></g><g transform="translate(1268.3984375, 827)" class="edgeLabel"><g transform="translate(-29.3671875, -12)" class="label"><foreignObject height="24" width="58.734375"><div style="display: table-cell; white-space: nowrap; line-height: 1.5; max-width: 200px; text-align: center;" class="labelBkg" xmlns="http://www.w3.org/1999/xhtml"><span class="edgeLabel"><p>initiates</p></span></div></foreignObject></g></g><g transform="translate(1826.4140625, 889)" class="edgeLabel"><g transform="translate(-26.03125, -12)" class="label"><foreignObject height="24" width="52.0625"><div style="display: table-cell; white-space: nowrap; line-height: 1.5; max-width: 200px; text-align: center;" class="labelBkg" xmlns="http://www.w3.org/1999/xhtml"><span class="edgeLabel"><p>defines</p></span></div></foreignObject></g></g><g transform="translate(627.984375, 35)" class="edgeLabel"><g transform="translate(-39.7578125, -12)" class="label"><foreignObject height="24" width="79.515625"><div style="display: table-cell; white-space: nowrap; line-height: 1.5; max-width: 200px; text-align: center;" class="labelBkg" xmlns="http://www.w3.org/1999/xhtml"><span class="edgeLabel"><p>sets source</p></span></div></foreignObject></g></g><g transform="translate(627.984375, 151)" class="edgeLabel"><g transform="translate(-56.625, -12)" class="label"><foreignObject height="24" width="113.25"><div style="display: table-cell; white-space: nowrap; line-height: 1.5; max-width: 200px; text-align: center;" class="labelBkg" xmlns="http://www.w3.org/1999/xhtml"><span class="edgeLabel"><p>sets destination</p></span></div></foreignObject></g></g><g transform="translate(839.609375, 471)" class="edgeLabel"><g transform="translate(-28.1796875, -12)" class="label"><foreignObject height="24" width="56.359375"><div style="display: table-cell; white-space: nowrap; line-height: 1.5; max-width: 200px; text-align: center;" class="labelBkg" xmlns="http://www.w3.org/1999/xhtml"><span class="edgeLabel"><p>displays</p></span></div></foreignObject></g></g><g transform="translate(627.984375, 204)" class="edgeLabel"><g transform="translate(-21.09375, -12)" class="label"><foreignObject height="24" width="42.1875"><div style="display: table-cell; white-space: nowrap; line-height: 1.5; max-width: 200px; text-align: center;" class="labelBkg" xmlns="http://www.w3.org/1999/xhtml"><span class="edgeLabel"><p>shows</p></span></div></foreignObject></g></g><g transform="translate(1268.3984375, 951)" class="edgeLabel"><g transform="translate(-32.4765625, -12)" class="label"><foreignObject height="24" width="64.953125"><div style="display: table-cell; white-space: nowrap; line-height: 1.5; max-width: 200px; text-align: center;" class="labelBkg" xmlns="http://www.w3.org/1999/xhtml"><span class="edgeLabel"><p>animates</p></span></div></foreignObject></g></g><g transform="translate(839.609375, 257)" class="edgeLabel"><g transform="translate(-35.8671875, -12)" class="label"><foreignObject height="24" width="71.734375"><div style="display: table-cell; white-space: nowrap; line-height: 1.5; max-width: 200px; text-align: center;" class="labelBkg" xmlns="http://www.w3.org/1999/xhtml"><span class="edgeLabel"><p>illustrates</p></span></div></foreignObject></g></g><g transform="translate(1076.21875, 701)" class="edgeLabel"><g transform="translate(-60.125, -12)" class="label"><foreignObject height="24" width="120.25"><div style="display: table-cell; white-space: nowrap; line-height: 1.5; max-width: 200px; text-align: center;" class="labelBkg" xmlns="http://www.w3.org/1999/xhtml"><span class="edgeLabel"><p>shows results for</p></span></div></foreignObject></g></g><g transform="translate(627.984375, 701)" class="edgeLabel"><g transform="translate(-28.265625, -12)" class="label"><foreignObject height="24" width="56.53125"><div style="display: table-cell; white-space: nowrap; line-height: 1.5; max-width: 200px; text-align: center;" class="labelBkg" xmlns="http://www.w3.org/1999/xhtml"><span class="edgeLabel"><p>updates</p></span></div></foreignObject></g></g></g><g class="nodes"><g transform="translate(839.609375, 146)" id="flowchart-Device-0" class="node default"><rect height="54" width="132.328125" y="-27" x="-66.1640625" style="" class="basic label-container"/><g transform="translate(-36.1640625, -12)" style="" class="label"><rect/><foreignObject height="24" width="72.328125"><div style="display: table-cell; white-space: nowrap; line-height: 1.5; max-width: 200px; text-align: center;" xmlns="http://www.w3.org/1999/xhtml"><span class="nodeLabel"><p>Classroom</p></span></div></foreignObject></g></g><g transform="translate(1268.3984375, 505)" id="flowchart-Network-1" class="node default"><rect height="54" width="171.140625" y="-27" x="-85.5703125" style="" class="basic label-container"/><g transform="translate(-55.5703125, -12)" style="" class="label"><rect/><foreignObject height="24" width="111.140625"><div style="display: table-cell; white-space: nowrap; line-height: 1.5; max-width: 200px; text-align: center;" xmlns="http://www.w3.org/1999/xhtml"><span class="nodeLabel"><p>School Network</p></span></div></foreignObject></g></g><g transform="translate(1982.2578125, 744)" id="flowchart-Packet-2" class="node default"><rect height="54" width="118.203125" y="-27" x="-59.1015625" style="" class="basic label-container"/><g transform="translate(-29.1015625, -12)" style="" class="label"><rect/><foreignObject height="24" width="58.203125"><div style="display: table-cell; white-space: nowrap; line-height: 1.5; max-width: 200px; text-align: center;" xmlns="http://www.w3.org/1999/xhtml"><span class="nodeLabel"><p>Message</p></span></div></foreignObject></g></g><g transform="translate(2231.15625, 450)" id="flowchart-IPAddress-3" class="node default"><rect height="54" width="160.03125" y="-27" x="-80.015625" style="" class="basic label-container"/><g transform="translate(-50.015625, -12)" style="" class="label"><rect/><foreignObject height="24" width="100.03125"><div style="display: table-cell; white-space: nowrap; line-height: 1.5; max-width: 200px; text-align: center;" xmlns="http://www.w3.org/1999/xhtml"><span class="nodeLabel"><p>Room Number</p></span></div></foreignObject></g></g><g transform="translate(1618.6875, 661)" id="flowchart-RoutingProtocol-4" class="node default"><rect height="54" width="162.40625" y="-27" x="-81.203125" style="" class="basic label-container"/><g transform="translate(-51.203125, -12)" style="" class="label"><rect/><foreignObject height="24" width="102.40625"><div style="display: table-cell; white-space: nowrap; line-height: 1.5; max-width: 200px; text-align: center;" xmlns="http://www.w3.org/1999/xhtml"><span class="nodeLabel"><p>Hallway Route</p></span></div></foreignObject></g></g><g transform="translate(1618.6875, 294)" id="flowchart-NetworkType-5" class="node default"><rect height="54" width="159.140625" y="-27" x="-79.5703125" style="" class="basic label-container"/><g transform="translate(-49.5703125, -12)" style="" class="label"><rect/><foreignObject height="24" width="99.140625"><div style="display: table-cell; white-space: nowrap; line-height: 1.5; max-width: 200px; text-align: center;" xmlns="http://www.w3.org/1999/xhtml"><span class="nodeLabel"><p>School Layout</p></span></div></foreignObject></g></g><g transform="translate(1618.6875, 765)" id="flowchart-TransmissionProtocol-6" class="node default"><rect height="54" width="216.21875" y="-27" x="-108.109375" style="" class="basic label-container"/><g transform="translate(-78.109375, -12)" style="" class="label"><rect/><foreignObject height="24" width="156.21875"><div style="display: table-cell; white-space: nowrap; line-height: 1.5; max-width: 200px; text-align: center;" xmlns="http://www.w3.org/1999/xhtml"><span class="nodeLabel"><p>Message Passing Rules</p></span></div></foreignObject></g></g><g transform="translate(1618.6875, 453)" id="flowchart-OSIModel-7" class="node default"><rect height="54" width="221.96875" y="-27" x="-110.984375" style="" class="basic label-container"/><g transform="translate(-80.984375, -12)" style="" class="label"><rect/><foreignObject height="24" width="161.96875"><div style="display: table-cell; white-space: nowrap; line-height: 1.5; max-width: 200px; text-align: center;" xmlns="http://www.w3.org/1999/xhtml"><span class="nodeLabel"><p>Communication Layers</p></span></div></foreignObject></g></g><g transform="translate(1618.6875, 557)" id="flowchart-TCPIPModel-8" class="node default"><rect height="54" width="182.5" y="-27" x="-91.25" style="" class="basic label-container"/><g transform="translate(-61.25, -12)" style="" class="label"><rect/><foreignObject height="24" width="122.5"><div style="display: table-cell; white-space: nowrap; line-height: 1.5; max-width: 200px; text-align: center;" xmlns="http://www.w3.org/1999/xhtml"><span class="nodeLabel"><p>Simplified Layers</p></span></div></foreignObject></g></g><g transform="translate(1268.3984375, 181)" id="flowchart-PhysicalMedia-9" class="node default"><rect height="54" width="116.515625" y="-27" x="-58.2578125" style="" class="basic label-container"/><g transform="translate(-28.2578125, -12)" style="" class="label"><rect/><foreignObject height="24" width="56.515625"><div style="display: table-cell; white-space: nowrap; line-height: 1.5; max-width: 200px; text-align: center;" xmlns="http://www.w3.org/1999/xhtml"><span class="nodeLabel"><p>Hallway</p></span></div></foreignObject></g></g><g transform="translate(93.9140625, 364)" id="flowchart-LayoutSelector-10" class="node default"><rect height="54" width="171.828125" y="-27" x="-85.9140625" style="" class="basic label-container"/><g transform="translate(-55.9140625, -12)" style="" class="label"><rect/><foreignObject height="24" width="111.828125"><div style="display: table-cell; white-space: nowrap; line-height: 1.5; max-width: 200px; text-align: center;" xmlns="http://www.w3.org/1999/xhtml"><span class="nodeLabel"><p>Layout Selector</p></span></div></foreignObject></g></g><g transform="translate(416.359375, 790)" id="flowchart-SendMessageButton-11" class="node default"><rect height="54" width="209.734375" y="-27" x="-104.8671875" style="" class="basic label-container"/><g transform="translate(-74.8671875, -12)" style="" class="label"><rect/><foreignObject height="24" width="149.734375"><div style="display: table-cell; white-space: nowrap; line-height: 1.5; max-width: 200px; text-align: center;" xmlns="http://www.w3.org/1999/xhtml"><span class="nodeLabel"><p>Send Message Button</p></span></div></foreignObject></g></g><g transform="translate(1618.6875, 889)" id="flowchart-MessageInput-12" class="node default"><rect height="54" width="160.21875" y="-27" x="-80.109375" style="" class="basic label-container"/><g transform="translate(-50.109375, -12)" style="" class="label"><rect/><foreignObject height="24" width="100.21875"><div style="display: table-cell; white-space: nowrap; line-height: 1.5; max-width: 200px; text-align: center;" xmlns="http://www.w3.org/1999/xhtml"><span class="nodeLabel"><p>Message Input</p></span></div></foreignObject></g></g><g transform="translate(416.359375, 35)" id="flowchart-SourceClassroom-13" class="node default"><rect height="54" width="248.796875" y="-27" x="-124.3984375" style="" class="basic label-container"/><g transform="translate(-94.3984375, -12)" style="" class="label"><rect/><foreignObject height="24" width="188.796875"><div style="display: table-cell; white-space: nowrap; line-height: 1.5; max-width: 200px; text-align: center;" xmlns="http://www.w3.org/1999/xhtml"><span class="nodeLabel"><p>Source Classroom Selector</p></span></div></foreignObject></g></g><g transform="translate(416.359375, 151)" id="flowchart-DestinationClassroom-14" class="node default"><rect height="78" width="260" y="-39" x="-130" style="" class="basic label-container"/><g transform="translate(-100, -24)" style="" class="label"><rect/><foreignObject height="48" width="200"><div style="display: table; white-space: break-spaces; line-height: 1.5; max-width: 200px; text-align: center; width: 200px;" xmlns="http://www.w3.org/1999/xhtml"><span class="nodeLabel"><p>Destination Classroom Selector</p></span></div></foreignObject></g></g><g transform="translate(416.359375, 514)" id="flowchart-SimulationVisual-15" class="node default"><rect height="54" width="247.359375" y="-27" x="-123.6796875" style="" class="basic label-container"/><g transform="translate(-93.6796875, -12)" style="" class="label"><rect/><foreignObject height="24" width="187.359375"><div style="display: table-cell; white-space: nowrap; line-height: 1.5; max-width: 200px; text-align: center;" xmlns="http://www.w3.org/1999/xhtml"><span class="nodeLabel"><p>Network Simulation Visual</p></span></div></foreignObject></g></g><g transform="translate(839.609375, 701)" id="flowchart-PerformanceMetrics-16" class="node default"><rect height="78" width="260" y="-39" x="-130" style="" class="basic label-container"/><g transform="translate(-100, -24)" style="" class="label"><rect/><foreignObject height="48" width="200"><div style="display: table; white-space: break-spaces; line-height: 1.5; max-width: 200px; text-align: center; width: 200px;" xmlns="http://www.w3.org/1999/xhtml"><span class="nodeLabel"><p>Performance Metrics Display</p></span></div></foreignObject></g></g></g></g></g></svg>